<?xml version="1.0" encoding="UTF-8" standalone="no"?>
<!-- Created with Inkscape (http://www.inkscape.org/) -->

<svg
   width="51.525906mm"
   height="70.792274mm"
   viewBox="0 0 51.525906 70.792274"
   version="1.1"
   id="svg1"
   xml:space="preserve"
   inkscape:version="1.3.2 (091e20e, 2023-11-25)"
   sodipodi:docname="alien.svg"
   xmlns:inkscape="http://www.inkscape.org/namespaces/inkscape"
   xmlns:sodipodi="http://sodipodi.sourceforge.net/DTD/sodipodi-0.dtd"
   xmlns="http://www.w3.org/2000/svg"
   xmlns:svg="http://www.w3.org/2000/svg"><sodipodi:namedview
     id="namedview1"
     pagecolor="#505050"
     bordercolor="#eeeeee"
     borderopacity="1"
     inkscape:showpageshadow="0"
     inkscape:pageopacity="0"
     inkscape:pagecheckerboard="0"
     inkscape:deskcolor="#505050"
     inkscape:document-units="mm"
     inkscape:zoom="1.2399876"
     inkscape:cx="106.45268"
     inkscape:cy="132.25939"
     inkscape:window-width="1272"
     inkscape:window-height="797"
     inkscape:window-x="0"
     inkscape:window-y="25"
     inkscape:window-maximized="0"
     inkscape:current-layer="layer1" /><defs
     id="defs1" /><g
     inkscape:label="Layer 1"
     inkscape:groupmode="layer"
     id="layer1"
     transform="translate(-1.1378834,-1.9625717)"><path
       style="fill:#f368e9;fill-opacity:1"
       d="m 4.6187196,32.00264 c -1.652224,-1.067601 -1.029646,-3.001731 0.246867,-4.778092 1.795804,-2.498993 4.13258,-2.509423 6.2752784,-3.725101 2.279201,-1.293124 4.007506,-3.581217 6.289695,-4.877525 l 0.942352,-4.559159 c -0.543,-2.21427 -3.099691,-2.90051 -4.229833,-4.6232661 -0.636786,-1.75474 -0.30421,-4.151722 1.491605,-5.085931 2.447595,-0.554063 3.998219,2.557584 3.027972,4.551665 -0.541643,2.1638711 2.088753,4.0330311 3.325674,1.7752781 1.635639,-1.3901571 4.098579,-2.0304811 6.088257,-1.0299351 2.335851,0.165937 2.511927,-2.770604 3.3674,-4.30211 0.474087,-1.614301 1.687549,-4.083964 3.736525,-3.200106 1.992807,1.002017 2.055379,4.749096 -0.302597,5.341264 -1.683342,0.400684 -4.474364,1.255974 -3.799302,3.5329961 0.905661,1.647543 2.308058,2.8279 2.559447,4.777505 1.208913,1.125792 3.554172,-0.374929 4.518727,1.626899 1.113768,1.879114 2.548827,4.017925 2.412912,6.268679 -1.167379,1.260243 -2.00309,2.876349 -3.790498,3.095783 -1.29649,-0.732879 -1.699444,-2.34279 -2.389805,-3.528229 -0.48149,-0.979376 -1.444533,-3.08526 -2.731598,-2.068577 -0.964692,1.374053 -2.29132,2.364687 -3.973793,1.704302 -2.164321,0.0368 -4.378115,0.03263 -6.435553,-0.716664 -0.811328,0.544989 2.081815,1.386831 2.961532,1.229826 1.925792,0.14464 4.130867,-0.326635 5.789346,0.89297 1.124955,1.052814 2.141847,2.978427 1.061971,4.387261 -1.054323,1.231594 -2.313682,1.759778 -4.549228,1.490693 -1.070316,-1.707296 -2.686996,-2.448527 -4.795607,-3.371507 -2.218865,-0.442712 -4.601494,-0.378352 -6.735995,0.362079 -1.876235,0.2573 -3.187543,-1.517064 -4.699724,-0.901316 -1.4390824,0.997254 -1.5952634,4.660647 -4.0054044,6.196938 -0.562045,0.312153 -1.399581,0.186439 -1.656623,-0.46662 z M 27.778439,18.393375 c -0.820511,-2.242048 -2.497589,2.03941 0.0789,0.786763 0.319249,-0.18159 0.195019,-0.629585 -0.0789,-0.786763 z m -2.124065,-2.66843 c 1.33907,-2.309352 -3.385399,-2.928118 -2.562045,-0.359224 -0.325099,1.836316 2.612653,2.502366 2.562045,0.359224 z m 3.939164,0.381054 c 1.793095,-1.36731 -1.907041,-4.625789 -1.842592,-1.675649 -0.05074,0.911474 0.754359,2.831316 1.842592,1.675649 z"
       id="path4"
       sodipodi:nodetypes="cssccccccccccccccccccccccccccccccccccccc" /><path
       style="fill:#68e4a9;fill-opacity:1"
       d="M 22.742679,72.456276 C 14.613461,71.722439 7.8978516,66.450853 2.0430266,61.140074 c -2.74627402,-2.491083 1.362357,-6.207769 4.268692,-3.027033 4.6304594,5.067645 14.2919494,9.339863 22.0200374,9.203335 1.036887,-0.01832 0.704829,4.941824 -0.214723,5.21081 -1.76939,0.51758 -3.58579,7.64e-4 -5.374354,-0.07091 z m 11.945498,-5.808825 c 11.073209,-7.429345 11.157284,-11.552847 12.985402,-19.522148 0.363488,-1.584549 3.201976,-2.071666 4.447198,-0.569757 0.958114,1.155618 0.422498,2.83884 0.09727,4.286404 -1.892128,8.42172 -4.532416,16.066127 -15.251711,19.339051 -0.913391,0.278886 -2.915253,-2.919739 -2.278159,-3.53355 z M 5.9644096,55.204248 c -3.760092,-6.84174 -3.593146,-14.930851 -3.075597,-22.490196 2.366512,-0.444088 4.515505,2.071872 6.375215,-3.631871 1.2817084,-3.874068 2.9499534,-1.942617 5.4779484,-1.288487 5.45818,-1.243644 7.104352,-0.631658 9.571662,1.293892 1.790291,2.456619 6.958284,2.378423 7.816482,-1.004323 -0.281906,-1.266773 -0.809795,-4.067175 -2.728806,-4.622187 1.761847,-0.230905 1.697126,-1.912193 3.608153,-1.539253 1.806917,1.309351 1.48146,6.225198 4.995617,5.159337 2.652703,-3.765622 4.558368,4.936875 6.294348,7.192675 2.503971,6.139232 2.847782,13.27075 0.736504,19.488627 -1.254401,3.694309 -3.951399,6.918818 -7.036161,9.25498 -10.944111,8.288227 -27.75037,-0.167861 -32.0353654,-7.813194 z m 32.8517074,-5.51746 c 0.900204,-2.479729 -2.082906,-0.360555 0,0 z m 0.859896,-6.841862 c -1.829198,-2.45077 -0.903589,2.421767 0,0 z m -4.195071,-5.971141 c 3.848471,-1.755403 -2.680068,-6.49178 -3.602602,-2.796288 -0.507044,1.892047 1.837282,4.314432 3.602602,2.796288 z m 5.385696,-0.924443 c -0.918165,-1.172549 -0.345366,1.313755 0,0 z M 24.279768,15.297926 c -0.897701,-4.494539 3.398756,1.357463 0,0 z m 4.320356,-0.493204 c -0.926175,-2.867636 2.086764,0.581244 0,0 z"
       id="path3"
       sodipodi:nodetypes="cssssccssssscccccccccccsscccccccccccccc" /></g></svg>
