<?xml version="1.0" encoding="UTF-8" standalone="no"?>
<svg xmlns="http://www.w3.org/2000/svg" direction="ltr" width="90.38483407847127" height="100.52045602861654" stroke-linecap="round" stroke-linejoin="round">
  <g id="arrow1" transform="matrix(1, 0, 0, 1, 6.08792846, 98.31607695)" opacity="1"><g transform="scale(1)"><g fill="none" stroke="currentColor" stroke-width="3" stroke-linejoin="round" stroke-linecap="round" pointer-events="none"><g><path d="M25.912030791887503,-29.79557635924607 A35.48636627200145 35.48636627200145 0 0 0 52.29686487035883,-66.3160323878626" stroke-dasharray="none" stroke-dashoffset="none"/></g><path d="M 46.788800879302855 -58.25573115785938 L 52.29686487035883 -66.3160323878626 L 56.523258502168595 -57.515758430936216"/></g></g></g>
  <g id="arrow2" transform="matrix(1, 0, 0, 1, 346.555, 527.9441)" opacity="1"><g transform="scale(1)"><g fill="none" stroke="currentColor" stroke-width="3" stroke-linejoin="round" stroke-linecap="round" pointer-events="none"><g><path d="M25.912030791887503,-29.79557635924607 A35.48636627200145 35.48636627200145 0 0 0 52.29686487035883,-66.3160323878626" stroke-dasharray="none" stroke-dashoffset="none"/></g><path d="M 46.788800879302855 -58.25573115785938 L 52.29686487035883 -66.3160323878626 L 56.523258502168595 -57.515758430936216"/></g></g></g>
  <g id="arrow3" transform="matrix(1, 0, 0, 1, 346.555, 527.9441)" opacity="1"><g transform="scale(1)"><g fill="none" stroke="currentColor" stroke-width="3.5" stroke-linejoin="round" stroke-linecap="round" pointer-events="none"><g><path d="M52.29686487035883,-66.3160323878626C13-63 31-36-8-30" stroke-dasharray="none" stroke-dashoffset="none"/></g><path d="M 42.545031391307326 -70.20855647858448 L 52.29686487035883 -66.3160323878626 L 44.049923383425 -59.81695890688936"/></g></g></g>
  <g id="arrow4" transform="matrix(1, 0, 0, 1, 346.555, 527.9441)" opacity="1"><g transform="scale(1)"><g fill="none" stroke="currentColor" stroke-width="3.5" stroke-linejoin="round" stroke-linecap="round" pointer-events="none"><g><path d="M52.29686487035883,-66.3160323878626C13-63 31-38-8-40" stroke-dasharray="none" stroke-dashoffset="none"/></g><path d="M 42.545031391307326 -70.20855647858448 L 52.29686487035883 -66.3160323878626 L 44.049923383425 -59.81695890688936"/></g></g></g>
  <g id="arrow5" transform="matrix(1, 0, 0, 1, 346.555, 527.9441)" opacity="1"><g transform="scale(1)"><g fill="none" stroke="currentColor" stroke-width="3.5" stroke-linejoin="round" stroke-linecap="round" pointer-events="none"><g><path d="M52.29686487035883,-66.3160323878626C13-63 31-43-8-52" stroke-dasharray="none" stroke-dashoffset="none"/></g><path d="M 42.545031391307326 -70.20855647858448 L 52.29686487035883 -66.3160323878626 L 44.049923383425 -59.81695890688936"/></g></g></g>
</svg>
