<?xml version="1.0" encoding="UTF-8" standalone="no"?>
<!-- Created with Inkscape (http://www.inkscape.org/) -->

<svg
   width="173.67674mm"
   height="145.96107mm"
   viewBox="0 0 173.67674 145.96107"
   version="1.1"
   id="svg1"
   xml:space="preserve"
   inkscape:version="1.3.2 (091e20e, 2023-11-25)"
   sodipodi:docname="canvas.svg"
   xmlns:inkscape="http://www.inkscape.org/namespaces/inkscape"
   xmlns:sodipodi="http://sodipodi.sourceforge.net/DTD/sodipodi-0.dtd"
   xmlns="http://www.w3.org/2000/svg"
   xmlns:svg="http://www.w3.org/2000/svg"><sodipodi:namedview
     id="namedview1"
     pagecolor="#505050"
     bordercolor="#eeeeee"
     borderopacity="1"
     inkscape:showpageshadow="0"
     inkscape:pageopacity="0"
     inkscape:pagecheckerboard="0"
     inkscape:deskcolor="#505050"
     inkscape:document-units="mm"
     inkscape:zoom="1.1569441"
     inkscape:cx="165.09009"
     inkscape:cy="395.87048"
     inkscape:window-width="1264"
     inkscape:window-height="749"
     inkscape:window-x="0"
     inkscape:window-y="25"
     inkscape:window-maximized="0"
     inkscape:current-layer="layer1" /><defs
     id="defs1" /><g
     inkscape:label="Layer 1"
     inkscape:groupmode="layer"
     id="layer1"
     transform="translate(-19.313395,-84.153633)"><path
       style="fill:#32373a;fill-opacity:1"
       d="m 178.84312,230.00617 c -25.03222,-3.24526 -50.23659,-3.53873 -75.38541,-5.43262 -24.64577,-0.56415 -49.101153,1.04103 -73.602175,3.86483 -9.93592,0.82903 -5.084785,-18.27349 -6.784424,-25.19023 0.726523,-19.81687 -2.548145,-39.41706 -3.757716,-59.12338 0.03315,-16.80121 1.003018,-33.67021 2.798415,-50.346852 2.944478,-15.475282 22.37188,-7.031864 33.418257,-9.416647 37.051978,-1.174231 115.203003,3.644263 133.868283,1.580776 8.50264,9.132892 0.6668,148.557163 -10.55523,144.064123 z M 20.935318,122.28018 c -0.62232,-0.14893 0.570846,1.4648 0,0 z"
       id="path16"
       sodipodi:nodetypes="ccccccccccc" /><path
       style="fill:#393e41;fill-opacity:1"
       d="m 24.871618,228.07766 c -3.150911,-22.00769 -0.285511,-47.67308 -4.439879,-69.62472 -2.330985,-20.5027 -0.05588,-41.17213 1.259664,-61.658998 -0.685565,-11.970879 10.988689,-13.285167 20.174758,-12.202953 11.78517,-0.547657 23.587414,-0.46583 35.376955,-0.148237 2.299854,30.866338 -1.5413,62.000028 -3.758112,92.722048 0.343926,11.83775 -1.176392,37.14105 -1.846664,47.75781 -10.011725,0.6641 -16.472346,1.26923 -29.275697,2.25254 -5.757481,0.26066 -11.814961,1.80752 -17.491025,0.90251 z m 52.300598,-97.54579 c 0.21182,-1.66334 0.21182,1.66334 0,0 z"
       id="path15"
       sodipodi:nodetypes="ccccccccccc" /></g></svg>
