<?xml version="1.0" encoding="UTF-8" standalone="no"?>
<!-- Created with Inkscape (http://www.inkscape.org/) -->

<svg
   width="97.862434mm"
   height="65.950081mm"
   viewBox="0 0 97.862434 65.950081"
   version="1.1"
   id="svg1"
   xml:space="preserve"
   inkscape:version="1.3.2 (091e20e, 2023-11-25)"
   sodipodi:docname="hand.svg"
   xmlns:inkscape="http://www.inkscape.org/namespaces/inkscape"
   xmlns:sodipodi="http://sodipodi.sourceforge.net/DTD/sodipodi-0.dtd"
   xmlns="http://www.w3.org/2000/svg"
   xmlns:svg="http://www.w3.org/2000/svg"><sodipodi:namedview
     id="namedview1"
     pagecolor="#505050"
     bordercolor="#eeeeee"
     borderopacity="1"
     inkscape:showpageshadow="0"
     inkscape:pageopacity="0"
     inkscape:pagecheckerboard="0"
     inkscape:deskcolor="#505050"
     inkscape:document-units="mm"
     inkscape:zoom="5.5592459"
     inkscape:cx="71.412563"
     inkscape:cy="200.38689"
     inkscape:window-width="1400"
     inkscape:window-height="847"
     inkscape:window-x="0"
     inkscape:window-y="25"
     inkscape:window-maximized="0"
     inkscape:current-layer="layer1" /><defs
     id="defs1" /><g
     inkscape:label="Layer 1"
     inkscape:groupmode="layer"
     id="layer1"
     transform="translate(-81.159556,-112.84713)"
     style="display:inline"><path
       id="path6"
       style="display:inline;fill:#68e4a9;fill-opacity:1"
       d="m 139.74668,112.87659 c -0.14315,-0.006 -0.28907,0.009 -0.43874,0.047 -2.1647,0.22851 -3.98027,1.922 -6.04459,2.61224 -8.01813,3.93734 -17.09196,5.66858 -24.38352,11.04688 -7.40944,5.93362 -14.217797,12.83664 -19.171959,20.98941 -0.706891,1.59907 -5.433008,7.26877 -1.614888,6.5071 2.107655,-0.35851 4.459578,0.77045 6.656441,0.92656 2.302871,-1.65573 4.596317,-3.33765 6.661606,-5.28909 1.62492,-1.08994 2.35455,-2.60993 2.34095,-4.57956 1.48671,-5.40749 2.96136,-11.22625 6.91172,-15.4156 3.87321,-4.84573 9.69973,-7.25953 15.19235,-9.73687 -0.50224,0.77454 -4.52699,2.49173 -6.36033,3.65456 -2.64795,1.66632 -5.63137,3.11518 -7.72925,5.46736 -3.99776,4.53511 -6.29416,10.34667 -7.55096,16.19178 -0.85067,3.77298 -0.62702,7.62317 -0.0925,11.42928 l 5.92522,6.49934 c 0.56892,-0.30909 1.09558,-0.7093 1.30225,-1.20199 1.45852,-4.18697 2.52511,-8.61437 3.22616,-13.0328 0.96095,-3.19865 3.03394,-6.01623 4.35477,-9.09143 0.64271,-1.59759 3.96156,-8.78922 2.77658,-3.56154 4.25458,-1.48823 8.62827,-3.14563 13.09739,-4.10776 3.71961,-0.38087 9.66371,-2.70139 12.13621,-2.25258 -3.06566,2.24622 -10.05777,3.19044 -15.15618,4.24987 -3.69826,1.06756 -7.06088,2.31321 -10.73527,3.54552 -1.63741,3.43575 -2.70907,6.67168 -4.0044,10.25726 1.85965,1.71565 3.0619,1.66932 5.36504,2.56935 1.71451,-1.56782 5.11923,-4.5607 7.0187,-5.90145 -1.28853,3.13069 -4.16612,7.94352 0.59118,8.8098 5.3407,2.49761 9.69924,7.05505 15.71842,7.68273 3.80767,0.4478 7.72115,-0.11875 11.46855,-0.87643 3.49272,-2.0631 7.22887,-3.83692 10.53424,-6.24871 3.37628,-2.65468 0.85435,1.22865 -0.786,2.13372 -1.22187,2.03364 -6.73145,2.16701 -5.98878,4.04678 5.38079,4.98008 11.56442,9.06646 18.05213,12.46022 -0.0189,-9.91482 0.0582,-19.83042 -0.0972,-29.74444 0.52615,-4.48452 -4.51043,-6.83849 -6.91017,-10.01231 -2.72512,-1.98104 -5.56755,-3.92676 -8.20622,-6.16706 -4.65782,-4.0421 -10.54273,-6.07116 -16.24138,-8.14111 -4.14788,-0.99258 -5.6704,-5.68175 -7.81761,-5.76605 z m 14.86468,22.0291 c 1.12524,0.80117 -2.81742,4.36254 -3.24373,6.15518 0.66635,2.09052 5.89985,0.55526 8.30234,1.52291 -4.68441,0.39803 -9.9891,-0.73502 -14.81718,0.49764 -0.95875,0.0317 -2.56001,0.70659 -3.49982,1.14464 -1.31185,0.61146 -2.29994,1.21625 -3.33904,2.19314 -2.1772,2.04685 -5.04727,6.1578 -1.73116,8.41447 3.11281,1.17883 6.52605,1.20167 9.51828,-0.38085 1.83099,-0.45869 3.38999,-2.43038 5.37125,-1.55598 2.88837,0.17787 5.95718,1.06249 8.77259,0.0667 1.0953,-1.49397 6.61908,-1.73802 3.35948,0.38758 -3.66971,2.49483 -7.91999,2.40608 -11.95689,1.11828 -2.28294,-0.66904 -3.43717,0.50612 -5.40174,1.49913 -1.10007,0.27799 -2.33618,1.20763 -3.46284,1.31671 -1.96288,0.26462 -4.19985,-0.53093 -5.84357,-1.64486 -2.67121,-0.28871 -4.13361,-4.5962 -2.15123,-6.45112 2.84516,-3.93832 5.30725,-5.6385 9.89855,-6.75836 1.45633,-0.42404 3.36546,-0.77311 5.52031,-0.66802 1.22942,-2.48267 2.53874,-5.06588 4.7041,-6.85746 z m -43.79681,-10.73784 c -7.40351,2.88364 -14.167371,7.20145 -20.623544,11.78481 -3.093383,2.57994 -7.44236,4.88612 -8.149373,9.19272 2.132309,-0.18074 2.233131,1.62044 4.108793,3.07526 0.726316,0.33057 1.290743,0.16279 2.079976,0.14159 3.555222,-6.62831 9.001611,-11.92749 14.279228,-17.21755 2.1994,-2.59953 6.85649,-5.30595 8.30492,-6.97683 z m -18.314124,43.80664 c 0.680832,1.03942 2.319665,-0.23418 1.756999,-1.52083 0.02321,-2.10615 -2.150802,-0.1608 -2.907072,0.63623 -0.635887,0.67015 0.913826,0.52393 1.150073,0.8846 z m 0.596863,-3.59514 c 0.142285,0.004 0.378144,0.0835 0.726053,0.30075 -0.739701,0.35168 -1.152909,-0.31304 -0.726053,-0.30075 z m 7.792291,-5.33818 c -0.3753,-0.0219 -0.71655,0.3026 -0.71624,1.29294 -0.0306,0.4168 -0.0691,0.57013 0.41651,0.47853 2.1163,0.001 1.12538,-1.72337 0.29973,-1.77147 z m 15.29932,1.6924 c -0.15191,0.0438 -0.16991,0.38849 0.12661,1.27331 1.99205,1.17235 0.32912,-1.40466 -0.12661,-1.27331 z m 3.05666,2.28824 c -0.48327,0.0746 -0.8091,0.5549 -0.59118,1.71565 -0.36766,1.3522 1.23289,0.53204 1.94924,0.74983 1.52974,-0.83117 -0.29485,-2.62973 -1.35806,-2.46548 z" /><path
       id="path5"
       style="display:inline;fill:#f368e9;fill-opacity:1"
       d="m 137.7406,113.45278 c -0.57426,0 -5.58386,2.68335 -5.73247,3.07061 l -0.15709,0.40876 1.29294,1.16479 c 0.71104,0.64058 1.51284,1.13752 1.7818,1.10432 l 0.48886,-0.0605 0.63252,-1.5875 c 0.34776,-0.87312 0.93199,-2.15304 1.29811,-2.84427 0.36615,-0.69122 0.54407,-1.25625 0.39533,-1.25625 z m -18.26349,10.36164 c -0.33331,-0.11435 -2.07992,0.91053 -4.68291,2.74867 l -2.05311,1.45004 -1.85208,2.21899 c -2.0431,2.44764 -3.46864,5.06925 -4.8302,8.88472 -1.38868,3.89147 -1.41848,4.13217 -1.56683,12.56771 l -0.13952,7.9375 0.43873,1.6831 c 0.2414,0.9256 0.2851,1.65679 0.30437,1.81746 l 0.17415,1.32137 0.11782,0.60255 c 0.0632,0.36381 0.30784,0.81029 0.54364,0.99219 0.34969,0.36804 0.97758,0.0582 0.99725,-0.0688 0.0833,-0.45767 0.11841,-0.93986 0.23465,-1.38482 0.0726,-0.04 0.21583,-0.0682 0.41703,-0.0682 0.22423,0 0.65274,-0.14887 1.11311,-0.35656 0.84563,-0.38151 1.79924,-0.96052 1.79524,-1.17564 -0.002,-0.10301 -0.17843,-0.84244 -0.39326,-1.6428 l -0.39068,-1.4552 -0.003,-5.44567 c -0.002,-2.99526 0.10743,-6.0909 0.24237,-6.87916 0.13494,-0.78825 0.37982,-2.26694 0.54467,-3.28559 0.38588,-2.38469 0.78131,-4.32521 1.05109,-5.15938 0.11766,-0.36381 0.36905,-1.19723 0.55863,-1.85208 0.30768,-1.06275 1.29216,-3.45311 2.17919,-5.29167 0.80939,-1.67762 2.7043,-4.63667 4.01681,-6.27196 0.79351,-0.98869 1.32606,-1.83761 1.18287,-1.88671 z m 27.31152,6.22236 -0.7519,0.30489 c -0.41362,0.16774 -1.93524,0.54594 -3.38119,0.84026 -1.44592,0.29433 -3.05329,0.6463 -3.57187,0.78186 -2.1636,0.56559 -5.56637,1.30355 -7.36493,1.59732 -1.05834,0.17287 -2.07036,0.45986 -2.24895,0.63821 -0.17858,0.17832 -2.19341,1.02221 -4.47725,1.87482 l -4.1522,1.55029 -2.03347,4.11964 c -1.11824,2.26594 -2.20166,4.5959 -2.40812,5.17798 l -0.37569,1.05885 0.74052,0.59428 c 0.88125,0.7079 1.72452,1.12157 4.115,2.019 l 1.78749,0.67128 2.51871,-2.40761 c 1.38508,-1.32417 2.58169,-2.34413 2.65926,-2.26653 0.0776,0.0776 -0.18051,0.89841 -0.57412,1.82366 -0.99798,2.34597 -1.41493,3.79584 -1.19373,4.15376 0.10365,0.1677 2.90504,1.6722 6.22495,3.34294 3.31989,1.67076 6.17575,3.15328 6.34638,3.29489 0.4514,0.37463 4.30631,1.55575 5.98775,1.83452 0.79384,0.13161 1.87933,0.25327 2.41225,0.27027 l 0.96894,0.031 1.89342,-1.09192 c 1.04154,-0.60049 2.40639,-1.59667 3.03237,-2.21382 0.62601,-0.61715 1.51169,-1.34306 1.96836,-1.61282 0.45667,-0.26976 0.79424,-0.59806 0.75034,-0.72967 -0.14685,-0.44053 -3.75681,-1.53104 -5.64462,-1.43092 l -1.32498,0.0703 -1.75596,0.8909 -1.75545,0.89142 -3.1781,0.28267 -3.1781,0.28215 -0.47388,-0.41393 c -0.26046,-0.22765 -0.9496,-0.49804 -1.53169,-0.60099 -1.69157,-0.29926 -3.0427,-1.88896 -3.0427,-3.57963 0,-1.44355 0.51089,-2.94421 2.7404,-5.16454 2.57556,-2.565 4.10199,-3.18744 6.32933,-3.95222 l 1.64589,-0.56534 0.0785,-0.9157 c 0.0433,-0.50375 0.26694,-1.80868 0.49713,-2.90009 0.23019,-1.09138 0.5047,-2.46062 0.60978,-3.0427 0.16066,-0.89004 0.7344,-2.64504 1.4273,-4.36563 0.088,-0.21829 0.053,-0.56486 -0.0775,-0.76998 z m -44.42365,2.39675 -0.28422,0.10077 c -0.39919,0.14156 -7.073428,7.309 -7.866704,8.44806 l -0.654223,0.93948 0.444417,1.13171 0.444417,1.13172 -0.337964,2.01176 c -0.185927,1.10653 -0.503037,2.26391 -0.704866,2.57194 -0.432622,0.66027 -1.963705,4.82192 -1.963705,5.33766 v 0.35656 c 0.546135,0 1.037658,0.17742 1.54926,0.26252 l 1.081588,-2.08979 c 0.534916,-1.03341 1.18007,-2.12423 1.318265,-2.48771 0.138197,-0.36349 0.3797,-0.74036 0.536402,-0.83716 0.156701,-0.0968 0.457394,-0.58848 0.668176,-1.09295 0.210781,-0.50448 0.54911,-1.08345 0.751892,-1.28623 0.366791,-0.36679 0.985862,-1.79143 2.532662,-5.83013 0.865423,-2.25961 1.372203,-4.00047 2.302703,-7.90598 z m -2.05104,0.62632 c -0.009,-0.004 -0.0262,9.7e-4 -0.0522,0.0145 -0.12455,0.0645 -0.447135,0.32628 -0.968934,0.79323 -0.269818,0.24146 -1.22405,0.82802 -2.120284,1.30328 -2.234404,1.18487 -4.318281,2.80998 -6.779948,5.28753 -0.805256,0.81046 -2.386731,2.16028 -3.514514,2.99982 l -2.050521,1.52652 0.0083,0.83664 c 0.01014,1.00817 0.365502,1.51449 1.583883,2.25723 0.50675,0.30892 1.018175,0.56221 1.136882,0.56276 0.59652,0.003 1.304341,-0.67205 1.883089,-1.79472 1.160153,-2.25057 5.979867,-8.39258 9.797335,-12.48555 0.778302,-0.83447 1.138212,-1.27586 1.076932,-1.30121 z m 4.05867,28.86594 c -0.27913,-0.0113 -0.80664,0.17438 -1.90428,0.54467 -2.19564,0.74066 -5.035098,2.78892 -5.706626,4.11654 -0.573322,1.13347 -1.02826,3.12238 -1.242301,5.43275 l -0.151412,1.6371 0.488859,0.44236 c 0.268749,0.24319 1.855749,0.87572 3.526917,1.40611 1.671173,0.53038 4.645923,1.48645 6.610453,2.12442 1.9645,0.63797 3.77073,1.16337 4.01422,1.16737 0.2435,0.004 0.77928,-0.27037 1.19063,-0.60978 0.41134,-0.33942 1.51076,-1.13036 2.44274,-1.75752 0.93199,-0.62716 2.15478,-1.55592 2.71766,-2.06447 l 1.02371,-0.92501 -0.15192,-2.8081 c -0.0835,-1.54443 -0.20894,-3.18485 -0.27854,-3.64577 l -0.12661,-0.83819 -2.22518,-1.87379 c -2.14176,-1.80357 -2.7864,-2.17607 -2.7864,-1.60972 0,0.14552 -0.31555,0.0576 -0.42788,0.26458 -0.88565,1.63156 -1.82735,2.50304 -2.27221,4.00493 -1.06034,0.0524 -2.14429,0.77784 -3.19649,0.67028 -0.90238,-0.0223 -1.10102,-2.00758 -1.16529,-2.65936 l -0.10233,-1.96996 c -0.10507,-0.41864 0.002,-1.03814 -0.27762,-1.04943 z m -12.535153,-6.69417 -1.062984,0.60772 c -3.614375,2.06655 -5.574714,3.52934 -5.906616,4.408 -0.144971,0.38379 -0.337224,1.32892 -0.427364,2.10013 l -0.163815,1.40198 1.480013,1.6862 c 0.814148,0.92733 1.979893,1.94007 2.59054,2.25051 l 1.110526,0.56431 1.068669,-0.10801 1.069186,-0.108 0.773079,-0.71675 c 0.441257,-0.40894 0.970989,-0.66463 1.234033,-0.59583 l 0.460437,0.1204 0.578259,-1.75803 c 0.31801,-0.96688 0.855812,-2.31171 1.19476,-2.98896 l 0.615983,-1.23145 c -0.248563,-0.2558 -0.656506,-0.1137 -0.792717,-0.65784 -0.05943,-0.2374 0.536918,-0.50075 0.536918,-0.50075 0.295439,-0.27525 0.537435,-0.61462 0.537435,-0.75447 0,-0.13985 0.258165,-0.25425 0.574125,-0.25425 0.702444,0 1.542542,-0.71803 1.542542,-1.31827 0,-0.64407 -1.133958,-1.60536 -2.168343,-1.83865 -0.492966,-0.1112 -1.644725,-0.1921 -2.439128,-0.0894 -0.794403,0.10267 -1.291895,0.0122 -1.60507,-0.0527 z m -5.913851,-5.78569 c -0.826065,0.0224 -1.74604,0.14412 -2.239656,0.35037 l -0.861963,0.36018 -0.76016,2.71973 c -0.42176,1.51015 -0.769908,3.43605 -0.782898,4.32945 l -0.02326,1.60921 0.79375,0.17415 c 0.436563,0.0956 1.264767,0.18795 1.840715,0.20515 l 1.047481,0.0315 0.936894,-0.89865 c 0.515455,-0.49409 1.754875,-1.44064 2.753837,-2.10375 l 1.81591,-1.20561 -0.711068,-0.1788 c -0.391233,-0.0982 -1.005893,-0.0441 -1.365808,0.11989 -1.004829,0.45783 -1.899387,0.36243 -2.22002,-0.23668 l -0.286287,-0.53485 0.698665,-1.64796 c 0.384297,-0.90641 0.810501,-1.86125 0.947229,-2.12183 0.13673,-0.26058 0.178272,-0.58801 0.09198,-0.72761 -0.117211,-0.18965 -0.849285,-0.26635 -1.67535,-0.24391 z"
       sodipodi:nodetypes="ccccccccccccccscccccccccscccccscscsccccccssccccccccccccscssccccscccccccccsccccscccccccccccsscccsssssccccssccccsccsccscsccssssssccccccscccccssccscccccccccccccscsssccsccccccccccccccscccsccc" /><path
       style="display:inline;fill:#e7c37f;fill-opacity:1"
       d="m 117.80782,170.20079 c -0.2196,-1.35605 -0.16814,-2.73309 -0.17828,-4.10143 -1.63441,-1.36438 -3.43971,-2.55064 -4.89415,-4.10975 -0.23735,-0.59334 -0.55148,-1.3838 -0.3462,-2.01552 0.6465,-1.35342 1.24704,-4.15458 1.9395,-4.06027 0.60736,0.0351 1.35793,-0.186 1.84152,0.0517 1.52686,1.24367 3.20956,2.57434 3.59182,4.63086 0.002,0.60315 0.44038,1.41333 0.17275,1.93257 -0.3485,0.66232 -1.65446,0.2834 -1.63734,0.99517 0,0 -0.23162,2.03927 0,2.3106 0.37293,0.43686 1.15796,-0.12433 1.46018,0.0592 -0.21827,1.80287 -0.44209,3.74245 -1.7437,5.12319 -0.10311,-0.0406 -0.13985,-0.61344 -0.2061,-0.8163 z m -0.59057,-7.56932 c 0.49381,-0.35104 0.74844,-1.61908 -0.1195,-1.64395 -2.02353,-1.00362 -1.43979,2.36152 0.1195,1.64395 z m -22.137216,7.6822 c -0.485868,-1.41027 0.148526,-2.95497 0.438205,-4.3622 0.998572,-3.80622 3.192879,-7.29519 6.159231,-9.87195 0.45949,-0.40764 1.96904,-1.28345 2.00884,-0.21355 0.10116,0.50071 0.20233,1.00143 0.3035,1.50214 l 0.13431,3.93543 c -0.59575,0.39308 -1.46917,0.49682 -2.11619,0.89105 -1.72231,0.93816 -3.510997,1.88602 -4.900767,3.28942 -0.974393,1.37601 -1.383709,3.03622 -1.820276,4.63426 -0.01558,-0.013 -0.104715,0.28639 -0.206853,0.1954 z m 6.670426,-9.42358 c 0.82584,-0.43734 0.47501,-1.9118 -0.2543,-2.06677 -1.47559,-0.36498 -1.959925,1.34829 -1.41108,2.46944 0.52127,0.42946 1.27432,0.009 1.66538,-0.40267 z m 1.46551,6.87247 c -1.13797,-0.50905 -1.27897,-1.31843 -1.15697,-2.52008 0.53867,-0.64998 0.42191,-2.13212 2.36328,-2.41523 0.28367,0.0867 0.2591,0.3853 0.28694,1.14723 0.10791,1.02708 0.78362,3.54216 2.12637,3.14525 0.54072,-0.4369 0.90303,-1.40938 1.35029,-2.0033 0.76886,-0.25226 0.95042,-0.42386 1.66035,-0.83823 0.73283,-0.42773 1.17953,-1.35888 1.89706,-1.53211 0.94458,0.60157 1.46721,2.13525 0.71881,3.23349 -1.76669,2.92653 -7.64655,2.71715 -9.24609,1.78298 z m -12.303123,-7.00943 c -0.619911,-0.24858 -1.452428,-0.79085 -1.5875,-1.47429 -0.03857,-1.0722 0.126721,-2.40481 1.167724,-2.88758 1.094274,-0.50748 2.265685,-0.5015 3.462484,-0.61065 0.726597,-0.0663 1.694721,0.30067 1.918229,0.92604 0.38034,1.06418 0.642759,2.70242 -0.434496,3.35836 -1.329019,0.80923 -3.016972,1.29342 -4.526441,0.68812 z m -6.058413,-7.21411 c -0.734401,-0.22667 -0.524158,-1.05023 -0.260585,-1.53141 0.506702,-0.94386 3.195469,-1.40681 2.076581,0.23485 -0.331045,0.67663 -0.411785,2.12807 -1.815996,1.29656 z"
       id="path7"
       sodipodi:nodetypes="sccccccccsccsscccccccccccccccccccccccsccccscssssscccc" /><path
       style="display:none;fill:#68e4a9;fill-opacity:1"
       d="m 93.075108,163.16344 0.569991,0.0816 c 0.65839,0.0942 0.92868,0.96882 0.402559,1.30224 -0.834625,0.52892 -1.43868,0.0847 -1.144633,-0.84181 z"
       id="path11" /><path
       style="display:inline;fill:#68e4a9;fill-opacity:1"
       d="m 95.540816,158.73365 c -0.190076,0.64174 -0.06339,1.35041 0.827669,1.46225 1.262933,0.12221 1.974263,-1.63127 0.637554,-2.06872 -0.674565,-0.22076 -1.209176,-0.25802 -1.465223,0.60647 z"
       id="path14"
       sodipodi:nodetypes="scss" /></g></svg>
