<?xml version="1.0" encoding="UTF-8"?>
<!-- Created with Inkscape (http://www.inkscape.org/) -->
<svg width="256mm" height="256mm" version="1.1" viewBox="0 0 256 256" xml:space="preserve" xmlns="http://www.w3.org/2000/svg"><g transform="translate(25.2 -95.9)"><g transform="translate(-6.6 15.2)"><path d="m127 88.5c-6.17 1.05-10.3 6.22-14.3 10.6-6.19 7.18-12.7 14.2-18.1 21.9-4.65 0.303-9.42 0.646-14.1 1.48-15.9 2.67-31.2 8.6-44.9 17.2-12.9 8.34-23.6 19.8-31.4 33-10.7 16.6-19.5 34.9-21.9 54.7-2.61 22.1 3.56 44.6 14.9 63.6 2.04 3.39 3.83 7.05 4.11 11.1 0.936 6.21 2.05 13 6.82 17.6 9.02 9.46 24 12.1 35.9 6.87 3.19-1.31 6.19-3.08 8.85-5.28 20.7 1.62 41.5-6.6 56.5-20.6 14.8-13.4 25.9-30.5 33.7-48.8 9.16-22.7 10.1-48.3 4.32-72.1 5.79 7.31 12.5 14.1 20.7 18.7 12.5 7.73 26.7 12.3 40 18.3 4.61 2.09 8.61 6.44 14.1 6.91 6.02 0.861 12.5-2.94 14.1-8.89 1.59-4.99 0.931-10.3 1.34-15.4 0.399-15.3-1.95-31.1-9.18-44.8-9.44-18.6-26.4-33.4-46.5-39.4-10.7-3.51-22-5.23-33.3-4.46 2.53-4.44 2.69-10.4-0.654-14.5-4.85-6.31-13.6-7.86-21.1-7.68z" fill="#532378"/><path d="m98.7 132c-1.49 4.06 0.683 9.21 4.86 10.6 1.77 0.697 3.71 0.799 5.59 0.667 1.23-0.869 3.3-0.928 4.14 0.506 0.671 1.29-0.325 2.72-1.4 3.42-1.37 0.876-2.85 1.65-3.89 2.93-2.59 2.79-2.72 7.3-0.69 10.4 1.75 2.89 5.29 4.33 8.59 3.97 0.807-0.0371 2.01-0.54 2.8 0.193 1.05 0.807 0.696 2.33 0.166 3.33-0.911 1.69-2.86 2.45-3.8 4.12-1.56 2.31-1.86 5.36-0.816 7.94 0.84 2.34 2.72 4.3 5.09 5.09 1.01 0.562 1.19 1.94 0.856 2.91 1.27 0.324 1.86 2.01 1.02 3.04-0.913 1.38-1.64 2.88-2 4.51-0.232 1.01-0.946 2.16-2.13 2.06-0.25 0.0232-0.354 0.55-0.637 0.691-0.92 0.831-2.3 0.507-3.23-0.106-2.34-1.12-5.2-1.58-7.63-0.488-0.414 0.372-0.682 0.96-1.23 1.22-1.39 0.673-1.52 2.36-2.15 3.6-0.169 0.554-0.724 0.771-1.11 1.12-0.618 1.27-1.36 2.77-0.707 4.18 0.623 2.23 2.05 4.47 4.2 5.61 0.987 0.705 2.37 0.793 3.16 1.77 0.421 0.642 0.348 1.49 0.0215 2.16 0.876 0.863 0.481 2.27-0.288 3.07-1.04 1.47-1.56 3.21-2.16 4.88-0.707 1.24-2.51 1.12-3.47 0.251-1.94-1.15-4.21-2.27-6.52-1.85-2.83 0.757-5.42 2.63-6.68 5.32-0.814 1.41-1.52 3.02-2.91 3.95-0.692 0.376-1.61 0.221-2.16 0.848-1.18 0.697-2.43-0.226-3.39-0.883-1.47-0.926-3.22-1.24-4.76-1.99-1.01-0.751-0.807-2.36 0.0907-3.11 1.27-1.79 2.17-3.96 1.95-6.19 0.0409-1.13-0.303-2.49 0.515-3.41 0.9-0.82 2.36-0.254 2.86 0.752 2.75 3.45 8.3 4.39 11.9 1.67 3.28-2.3 4.71-6.98 3.01-10.7-1.54-3.72-5.9-6.01-9.83-5.05-3.1 0.592-5.77 3.01-6.56 6.08-0.453 1.41-0.402 2.78-0.475 4.23-0.204 1.17-1.82 1.89-2.69 0.933-1.62-1.5-3.33-3.11-5.56-3.57-1.79-0.6-3.69-1.38-5.6-0.84-1.85 0.344-3.6 1.33-4.62 2.95-1.49 1.82-2.74 4.02-2.71 6.45-0.129 1.47 0.248 2.94 0.155 4.4-0.349 0.436-0.0048 0.561 0.316 0.867 0.905 1.45 1.28 3.31 2.71 4.4 1.36 1.09 3.5 0.998 4.49 2.57 0.649 1.22-0.282 2.45-0.905 3.46-0.848 1.32-0.95 2.99-1.87 4.25-0.463 0.461-1.16 0.649-1.78 0.58-0.651 1.12-2.2 1.32-3.28 0.713-1.19-0.432-2.49-0.662-3.54-1.42-1.26 0.437-2.66 0.362-3.92 0.853-2.75 0.927-4.86 3.37-5.48 6.19-0.384 1.08-0.32 2.26-0.524 3.37-0.79 1.97-3.63 2.35-5.14 0.992-1.52-1.24-2.99-2.65-4.96-3.1-3.8-0.977-8.06 0.964-9.9 4.42-0.665 1.07-0.865 2.55-2.11 3.14-0.632 0.359-1.41 0.409-2.09 0.193-1.03 0.648-2.11-0.244-3.03-0.65-2.58-0.984-5.38-1.91-7.27-4.02-0.733-1.12 0.0865-2.38 0.736-3.31 1.6-2.68 1.83-6.33 0.16-8.98-1.2-2.13-3.28-3.72-5.66-4.28-1.05-0.426-1.7-1.4-2.39-2.24-0.726 0.137-1.55 0.216-2.23 0.0976-1.01 1.19-2.62 1.64-4.07 2.06-0.537 0.121-1.07 0.283-1.62 0.316-0.368 1.51-0.191 3.08-0.0352 4.62 0.341 3.75 0.608 7.48 1.24 11.2 0.145 0.997 0.665 2 1.69 2.32 1.43 0.712 3.19 0.877 4.36 2.03 0.718 0.903 0.259 2.14-0.386 2.94-0.891 1.48-1.58 3.04-2.15 4.7 0.702 1.31 0.134 2.85 0.859 4.15 0.375 1.11 1.02 2.12 1.96 2.81 0.444 0.462 0.47 1.16 0.498 1.73 0.573 0.521 0.724 1.39 1.01 2 0.273-0.701 0.834-1.24 1.47-1.61 0.988 0.395 2.08 1.35 1.72 2.53 0.867 0.519 1.05 1.83 0.245 2.49-0.447 0.474-1.24 0.618-1.79 0.44 0.426 0.544 0.668 1.23 1.27 1.61 0.36 0.47 0.28 1.11 0.631 1.59 0.0406 0.411-0.0557 0.801 0.408 0.977 0.395 0.304 0.575 0.812 0.729 1.24 0.754 0.384 1.04 1.22 1.28 1.95 0.33 0.584 0.534 1.22 0.98 1.73 0.223 0.504 0.595 0.889 1.01 1.22 0.397 0.552 0.257 1.28 0.605 1.86 1.12 3.46 0.968 7.15 1.69 10.7 0.56 3.04 1.41 6 2.84 8.69 1.56 2.08 3.88 3.42 6.31 4.27 2.39 0.835 4.83 1.39 7.34 1.86 2.28 0.218 4.59-0.284 6.72-1.06 2.63-1.03 4.9-2.74 7.19-4.34 2.84-1.8 6.21-2.6 9.53-2.76 1.02-0.448 2.17-0.519 3.22-0.136 0.585 0.01 1.16-0.274 1.76-0.0915 0.452 0.0436 0.889 0.334 1.26-0.0355 0.702-0.381 1.52-0.0547 2.24-0.131 0.673-0.256 1.42 0.0412 2.07-0.287 0.575-0.132 1.2 0.334 1.67-0.152 0.683-0.263 1.43-0.11 2.11-0.367 0.555 0.0168 1.09 0.0252 1.61-0.203 0.443 0.0477 0.783 0.0292 1.12-0.281 0.627-0.217 1.3-0.238 1.92-0.459 0.464 0.113 0.729-0.108 1.11-0.323 0.683-0.228 1.33-0.539 2.06-0.537 0.45-0.191 0.953-0.249 1.41-0.233 0.471-0.456 1.22-0.501 1.79-0.77 0.501 0.0435 0.492-0.678 0.936-0.824 0.511-0.374 1.19-0.396 1.78-0.346 0.375-0.6 0.994-0.985 1.71-0.964 0.45-0.776 1.48-1.09 2.36-0.956 0.32-0.714 0.909-1.45 1.71-1.46 0.487 0.0181 0.868 0.0297 1.31-0.205 0.495 0.0486 0.707-0.24 0.98-0.59 0.615-0.355 0.676-1.19 1.36-1.49 0.534-0.276 1.12-0.334 1.62-0.691 0.728-0.272 1.3-0.8 1.98-1.17 0.315-0.615 0.967-0.9 1.64-0.939 0.36-0.795 1.02-1.65 1.97-1.63 0.519-0.807 1.14-1.69 2.16-1.85 0.297-0.967 1.53-1.14 1.86-2.1 0.45-0.799 1.5-0.825 1.96-1.6 0.205-0.462 0.71-0.643 1.06-0.896 0.231-0.68 0.98-0.97 1.23-1.63 0.414-0.538 0.992-0.945 1.63-1.17 0.264-0.65 0.904-1.01 1.17-1.65 0.322-0.575 1.07-0.698 1.31-1.32 0.741-0.608 0.883-1.63 1.61-2.26 0.3-0.397 0.86-0.531 1.19-0.806 0.17-0.623 0.567-1.17 1-1.6 0.245-0.939 0.732-1.94 1.67-2.31 0.206-0.508 0.811-0.646 0.941-1.19 0.236-0.518 0.834-0.752 0.886-1.35 0.216-0.595 0.62-1.19 1.25-1.39 0.237-0.934 0.596-1.89 1.31-2.54 0.256-0.755 1.05-1.16 1.14-1.98 0.228-0.727 0.642-1.49 1.38-1.79 0.122-0.724 0.699-1.23 1.07-1.79 0.373-1.15 0.587-2.7 1.84-3.28 0.0752-1.06 0.818-1.88 1.3-2.74 0.366-1.29 0.718-2.64 1.59-3.68 0.483-1.24 0.544-2.73 1.48-3.74 0.386-0.237 0.727-0.489 0.739-0.993 0.471-1.75 0.886-3.56 1.85-5.12 1.24-3.94 2.33-7.93 3.22-12 0.176-1.26 0.135-2.55 0.546-3.78 0.219-0.979 0.615-1.96 0.686-2.95-0.714-1.12-0.085-2.51 0.184-3.68 0.205-1.01 0.626-2.01 0.337-3.04-0.031-0.914 0.578-1.81 0.206-2.7-0.132-0.629 0.247-1.31 0.165-1.86-0.562-0.724-0.281-1.7-0.26-2.49-0.285-0.583-0.0214-1.26-0.082-1.84-0.572-0.742-0.245-1.72-0.559-2.54-0.0827-0.708 0.319-1.41-0.0156-2.08-0.128-0.557 0.201-1.16 0.0762-1.67-0.409-0.656-0.358-1.48-0.621-2.18 0.013-0.521 0.0424-1.02-0.191-1.5-0.0246-0.396 0.143-0.806-0.245-1.07-0.371-0.631-0.0763-1.4-0.399-2.04 0.0523-0.411-0.164-0.674-0.383-0.986-0.274-0.624-0.0832-1.33-0.351-1.95-0.0319-0.543-0.506-0.944-0.379-1.53-0.73-0.622-0.381-1.65-0.697-2.43-0.137-0.373-0.614-0.703-0.615-1.2-0.0397-0.613-0.386-1.13-0.412-1.76-0.839-0.466-1.06-1.54-0.938-2.42-0.657-0.437-1.03-1.2-0.876-1.98 0.119-0.517-0.503-0.76-0.655-1.21-0.813-1.29-1.68-2.56-2.42-3.88-0.458-1.15-0.292-2.62-1.35-3.46-0.537-0.75-0.557-1.74-0.328-2.61-0.727-0.673-0.875-1.86-0.381-2.71-1.11-0.396-2.64-0.534-3.19-1.74-0.466-1.31 0.769-2.32 1.27-3.39 0.618-1.16 1.07-2.4 1.5-3.64-0.777-0.626-0.802-1.73-0.959-2.61-0.153-0.345-0.0923-0.75-0.44-0.969-0.339-0.509-0.572-1.1-1.12-1.41-0.544-0.627-0.256-1.72-1.14-2.1-0.618-0.336-1.17-0.793-1.57-1.36-0.932-0.503-1.73-1.31-2.01-2.36-1.2 0.262-2.46-0.255-3.22-1.19-0.639-0.344-1.04-0.937-1.49-1.47-0.156-0.623-0.886-0.737-1.11-1.33-0.443-0.798-0.0948-1.75 0.523-2.34 0.334-0.446 0.667-0.894 0.971-1.36-4.47 1.59-9.86-0.0249-12.7-3.86-0.767-0.978-1.37-2.08-1.79-3.25-0.352 0.0309-0.878-0.321-1.12-0.116zm-15.2 1.82c-0.714 0.0975-1.32 0.491-1.77 1.03-0.308 0.264-0.916 0.115-0.905 0.667-0.441 1.28-1.62 2.05-2.74 2.69-0.612 0.58-0.589 1.52-0.873 2.27-0.424 1.56-0.312 3.23 0.275 4.73 0.952 2.82 3.46 5.1 6.44 5.53 2.01 0.43 4.21 0.275 6.02-0.761-0.735-1.52-0.573-3.3 0.0766-4.82 0.744-2.1 2.13-4.1 4.2-5.06-0.873-3.05-3.39-5.73-6.56-6.35-1.22-0.0904-2.46 0.136-3.68-0.032-0.164 0.0309-0.328 0.0618-0.492 0.0928zm65.8 1.98c-0.0216 0.728 0.591 0.24 0 0zm10 6.65c-0.392 0.52 0.965 0.438 0.393-0.0352-0.13-0.0711-0.271-0.0287-0.393 0.0352zm-90.8 0.48c-2.25 0.259-4.56 0.48-6.65 1.39-0.508 0.052-0.53 0.764-0.998 0.967-0.372 0.329-0.927 0.366-1.34 0.467-0.628 0.861-2.03 0.99-2.78 0.219-1.18 2.34-1.42 5.26-0.225 7.64 2.95-0.399 5.99-1.08 8.94-0.275 2.12 0.414 4.24 1.02 6.42 0.896 0.511 0.108 0.585-0.655 0.78-1.01 0.817-2.58 0.728-5.54-0.756-7.87-0.651-0.974-1.46-2.01-2.6-2.4-0.261-0.0509-0.527-0.0508-0.791-0.0195zm-23.4 6.24c-3.78 1.57-6.67 4.59-9.53 7.42-0.557 0.462-0.775 1.14-0.643 1.85 0.173 1.47 0.708 2.89 1.5 4.14 3.86-2.61 8.08-4.6 12.2-6.73 1.05-0.522 2.12-1.02 3.21-1.45-1.06-2.82-3.83-4.76-6.75-5.23zm48.3 5.53c-2.83 0.459-5.61 2.14-6.86 4.79-0.751 2.01-1.36 4.23-0.657 6.35 0.786 3.04 3.34 5.52 6.4 6.21 1.11 0.212 2.27 0.191 3.39 0.0447 0.576-0.286 1.14-0.613 1.82-0.635 1.15-0.0876 1.99-0.97 2.85-1.65 1.2-0.995 1.87-2.44 2.23-3.93 0.532-1.6 0.711-3.39 0.0487-4.98-0.69-1.99-1.94-3.96-3.86-4.92-1.6-0.644-3.3-1.04-4.99-1.29-0.124 4e-3 -0.247 8e-3 -0.371 0.0117zm55.6 6.12c0.179 0.313 1.25-0.517 0.675-0.528-0.225 0.176-0.45 0.352-0.675 0.528zm-119 0.523c-0.334 0.468-0.953 0.603-1.42 0.781-0.488 1.07-1.05 2.3-2.29 2.65-0.357 1.71-1.12 3.62-2.79 4.42-0.417 1.65-1.27 3.36-2.9 4.09-0.384 0.464-0.688-0.838-0.845-0.555 0.294 0.313 0.497 0.735 0.477 1.17 3.09 0.75 6.64-0.152 8.69-2.67 2.25-2.58 3.03-6.5 1.45-9.61-0.114-0.131-0.183-0.706-0.365-0.275zm120 1.15c-0.824 0.606 0.502 0.677 0.402 0.117-0.0834-0.149-0.252-0.172-0.402-0.117zm-68.4 7.92c-1.13 0.506-2.31-0.047-3.44 0.0652-2.49 8e-3 -5.01 0.396-7.45 1.09-1.67 0.484-3.36 0.923-4.92 1.7-0.37 0.266-1.35 0.306-0.923 0.919 0.86 2.25 2.58 4.22 4.87 5.07 4.01 1.73 9.28-0.0763 11.1-4.11 0.697-1.5 1.05-3.16 0.93-4.81l-0.0903 0.043zm22.5 4.02c0.549 0.663 0.637-0.3 0 0zm-43.6 1.59c-3.42 2.14-6.9 4.26-10.8 5.51-1.67 0.574-3.38 1.02-5.1 1.43 1.05 1.91 2.71 3.64 4.9 4.13 2.22 0.763 4.81 0.712 6.85-0.474 3.13-1.59 5.12-5.17 4.68-8.67-0.0685-0.684-0.205-1.36-0.426-2.01l-0.0865 0.0502zm44.3 0.199c0.358 0.701 0.481 1.5 0.987 2.13 0.36 0.623 0.482 1.36 1.04 1.84 0.488 0.678 0.68 1.51 0.96 2.28 0.201 0.582-0.295 1.24 0.137 1.72 0.389 0.706 0.11 1.54 0.111 2.26 0.292 0.608 0.0113 1.3 0.082 1.91 0.615 0.813 0.246 2.06 0.0957 2.8 1.33-1.15 2.33-2.68 2.64-4.43 0.648-2.12 0.28-4.45-0.838-6.34-1.13-1.96-3.04-3.57-5.21-4.16zm91.7 1.57c-0.74 0.269 0.695 0.677 0.395 0.0664-0.0888-0.136-0.266-0.0824-0.395-0.0664zm-166 0.113c-3.95 0.266-7.52 3.52-8.01 7.47 3.83-1.66 8.5-0.859 11.7 1.79 1.66 1.36 2.94 3.21 3.56 5.27 2.28-2.72 2.97-6.88 1.16-10-0.708-0.56-1.56-0.913-2.22-1.56-1-0.764-1.76-1.83-2.77-2.57-1.08-0.424-2.26-0.425-3.41-0.384zm50.1 5.78c-2.88 0.379-5.65 2.19-6.88 4.85-0.526 1.42-0.947 2.95-0.878 4.48 0.24 3.7 3.07 7.16 6.77 7.84 2.49 0.708 5.24 0.0752 7.24-1.53 3.14-2.36 4.38-6.95 2.69-10.5-0.937-2.2-2.82-4.05-5.19-4.6-1.2-0.373-2.48-0.654-3.74-0.504zm50.3 0.0801c1.96 0.377 2.67 3.51 0.908 4.56-0.962 0.606-2.22-0.0165-2.57-1.04-0.604-1.23-0.244-3.14 1.23-3.52 0.142 3e-3 0.291-0.0413 0.43 0zm-118 2.46c-1.3 2.79-2.65 5.57-3.82 8.42-0.286 0.856-0.6 1.76-1.28 2.39-0.27 1.37-0.295 2.94-1.36 3.98-0.0509 0.345-0.407 0.963 0.109 1.05 3.1 1.53 7.13 1.37 9.83-0.928 0.381-0.387 1.13-0.8 0.797-1.42-0.389-1.43-0.172-2.97 0.574-4.24 0.472-1.25 1.27-2.45 1.31-3.81-0.461-1.78-1.74-3.26-3.13-4.41-0.867-0.619-1.87-1.05-2.91-1.28-0.0423 0.0827-0.0846 0.165-0.127 0.248zm206 2.48c-0.132 0.496 0.264 0.411 0 0zm-1.83 1.05c0.198 0.634 1.17-0.0987 0.648-0.551-0.36-0.172-0.433 0.373-0.648 0.551zm-157 1.54c-3.39 0.41-6.71 2.76-7.5 6.2-0.559 1.62-0.765 3.59-0.0941 5.25 0.992 2.93 3.53 5.43 6.66 5.9 2.2 0.487 4.55 0.0544 6.38-1.22 3.08-2 4.7-6.01 3.71-9.58-0.698-2.75-2.79-5.29-5.66-5.9-1.16-0.24-2.31-0.734-3.51-0.658zm159 0.215c-0.609 0.436 0.215 0.709 0.407 0.141-0.0618-0.152-0.266-0.178-0.407-0.141zm-180 7.58c-2.78 0.193-5.61 1.61-7.09 4.02-0.813 1.58-1.32 3.34-1.39 5.11 0.186 3.47 2.67 6.87 6.09 7.92 2.2 0.646 4.79 0.52 6.85-0.679 1.75-1.01 3.42-2.49 3.87-4.55 0.48-1.73 0.999-3.57 0.432-5.35-0.916-3.61-4.34-6.42-8.09-6.48-0.223-0.0138-0.446 5e-3 -0.669 6e-3zm168 4.03c-0.863 0.845 0.75-0.216 0 0zm-191 2.25c-0.244 0.16 0.347-0.036 0 0zm107 1.24c1.63 0.338 2.77 1.77 4.42 2.04 1.1 0.273 2.19 1.23 1.98 2.46-0.138 1.96-0.991 3.77-1.5 5.65-0.266 0.995-0.947 2.35-2.19 2.05-1.13-0.387-1.98-1.33-3.1-1.77-1.09-0.557-2.23-0.801-3.37-1.27-1.06-0.602-1.28-2.19-0.387-3.04 1.06-1.52 1.74-3.26 2.29-5.01 0.324-0.685 1.06-1.23 1.84-1.12zm-105 0.127c-3.47 0.228-6.96 2.43-7.97 5.87-0.62 1.69-0.794 3.48-0.301 5.26 0.869 2.74 2.94 5.35 5.89 5.91 2.03 0.621 4.31 0.694 6.22-0.338 2.42-1.15 4.43-3.38 4.84-6.08 0.599-2.5-0.0375-5.21-1.65-7.2-1.66-2.16-4.34-3.37-7.04-3.41zm-17.6 9.22c-1.18 3.69-1.72 7.65-3.75 11-0.681 1.61-1.05 3.34-1.11 5.08 1.16 0.0236 2.39-0.327 3.51 0.043 1.01-1.36 2.8-1.86 3.79-3.26 2.37-2.76 2.83-7.09 0.746-10.1-0.721-1.06-1.52-2.12-2.54-2.9-0.331-0.145-0.592-0.393-0.639 0.156zm45.2 4.35c-3.08 0.355-6.24 2.15-7.29 5.21-0.955 2.27-1.25 4.99 0.0122 7.21 1.07 2.23 3.02 4.16 5.52 4.61 1.95 0.516 4.2 0.704 6.03-0.412 2.02-0.987 3.93-2.6 4.47-4.89 0.479-1.43 0.745-2.94 0.577-4.45-0.114-0.356 0.357-0.87 0.0335-1.05-0.746-0.588-0.862-1.65-1.46-2.37-1.04-1.61-2.62-2.87-4.49-3.35-1.09-0.358-2.25-0.605-3.4-0.522zm-21.3 7.71c-2.63 0.183-5.07 1.67-6.54 3.76-2.51 3.4-1.8 8.5 1.2 11.4 1.1 1.12 2.74 1.91 4.36 2.16 2.93 0.627 6.13-0.436 8.08-2.72 1.84-2.12 2.69-5.11 2.06-7.87-0.296-1.27-0.963-2.7-1.88-3.75-1.14-1.42-2.83-2.27-4.59-2.63-0.875-0.233-1.78-0.378-2.69-0.322zm85 7.41c1.53 0.35 2.6 1.65 4.08 2.11 1.1 0.477 2.53 0.755 3.12 1.91 0.467 1.15-0.47 2.16-1.02 3.08-0.833 1.54-1.08 3.4-2.17 4.78-0.893 0.78-2.22 0.295-2.93-0.488-1.49-1.09-3.28-1.56-4.92-2.29-1.13-0.829-0.758-2.51 0.0374-3.43 0.684-1.09 1.25-2.32 1.55-3.54-0.632-0.815 0.166-2.01 1.13-1.97 0.366-0.0778 0.74-0.195 1.12-0.151zm-22.1 6.74c0.671 0.24 1.15 0.869 1.78 1.22 1.51 1.11 3.21 1.99 5.05 2.37 1.16 0.367 2.08 1.83 1.31 2.94-0.962 1.52-1.83 2.98-2.38 4.68-0.336 0.976-1.07 2.2-2.26 2.02-1.16-0.404-1.95-1.47-3.14-1.84-1.29-0.587-2.87-0.797-3.88-1.85-0.688-0.984-0.0274-2.2 0.682-2.96 1.16-1.71 1.81-3.71 2.02-5.76 0.0453-0.423 0.338-0.927 0.826-0.836zm-18.7 8.33c0.806-0.0104 1.29 1.05 0.844 1.69 1.28 0.804 2.84 0.999 4.16 1.7 1.07 0.857 0.814 2.52-0.0312 3.44-1 1.54-1.43 3.35-2.12 5.02-0.565 0.999-2.07 1.16-2.83 0.3-1.53-1.15-3.34-1.86-5.18-2.34-1.07-0.42-1.71-1.89-0.873-2.83 1.08-1.54 1.88-3.27 2.37-5.08 0.25-0.976 1.12-1.74 2.15-1.7 0.511-0.0197 1.01-0.131 1.51-0.205zm-23 8.13c1.4 0.303 2.42 1.44 3.78 1.89 1.1 0.484 2.44 0.701 3.48 1.4 0.848 0.783 0.302 2.05-0.349 2.76-0.898 1.27-1.46 2.73-2.03 4.17-1.26 0.352-2.52 0.706-3.78 1.06-1.49-1.03-3.33-1.27-4.91-2.09-1.12-0.85-0.831-2.57 0.0529-3.49 0.694-1.1 1.27-2.38 1.57-3.6-0.662-0.694-0.159-2.01 0.827-2.01 0.448-0.0582 0.911-0.122 1.36-0.108zm-21.5 7.52c1.05 0.0988 1.76 1.06 2.72 1.44 1.36 0.837 3.01 1.09 4.33 1.97 0.881 0.731 0.869 2.16 0.067 2.94-0.434 0.646-0.777 1.35-1.08 2.06-1.88 0.591-4.15 0.802-5.38 2.55-1.38-0.634-2.99-0.927-4.34-1.72-0.91-0.725-0.834-2.17-0.0307-2.95 1.1-1.63 1.69-3.52 2.36-5.35 0.275-0.492 0.768-0.923 1.35-0.944z" fill="#fff563"/><path d="m130 113c-0.604 0.48-1.11 1.07-1.66 1.61 8.09 5.97 15.9 12.3 23.7 18.7 0.0587 5.44-0.655 22-0.797 27.4-0.215 3.18-0.346 6.38-0.106 9.56 0.863 0.906 2.28 0.416 2.96-0.455 1.24-1.54 0.79-3.65 0.973-5.48 0.15-5.48-0.583-22.1 0.433-27.5 1.58 1.16 2.93 2.61 4.36 3.95 4.84 4.83 9.26 10.1 13.5 15.4 2.3 3.08 4.51 6.26 6.28 9.68 0.4 1.81 0.179 3.68 0.383 5.5 0.512 10.2 0.852 20.4 1.96 30.5 0.0547 0.746 0.426 1.61 1.29 1.63 0.944-0.685 0.77-1.94 1.08-2.94 0.874-4.45 1.58-8.99 1.2-13.5-0.219-4.3-0.565-8.57-0.645-12.9 0.394-1.01 1.85-0.92 2.49-0.198 2.57 1.88 5.01 3.97 7.77 5.57 3.02 3.14 6.91 5.21 10.1 8.1 2.1 1.6 4.69 3.12 5.4 5.86 0.713 2.68 0.84 5.36 1.03 8.15 0.153 3.73-0.173 7.45-1.17 11-0.197 0.707-0.436 1.4-0.663 2.1 0.672 0.195 1.48 0.12 1.86-0.549 1.29-1.45 1.29-3.56 1.72-5.28 0.735 0.104 1.29 0.734 1.94 1.08 2.27 1.56 4.19 3.6 5.67 5.92 0.998 1.59 1.91 3.47 2.44 5.34 0.182 0.69 1.3 1.13 1.59 0.295 0.323-1.37 0.184-2.84-0.232-4.16-4.79-6.7-8.49-14.3-9.89-22.5-0.209-0.765-0.327-2.04 0.701-2.24 1.2-0.163 2.07 0.895 3.1 1.32 3.91 2.22 8 4.72 10.2 8.77 0.694 1.27 1.03 2.74 1.8 3.95 0.762 0.723 2.2 0.011 1.99-1.05 4e-3 -0.698-0.489-1.33-1.12-1.6-0.686-4.17-3.83-7.49-7.34-9.6-2.76-1.74-5.72-3.16-8.82-4.21-2.38-0.863-4.72-2-6.52-3.83-4.36-3.81-8.52-7.96-13.6-10.8-4.05-2.41-8.32-5.03-10.7-9.27-0.406-0.635-1.05-1.86-0.0895-2.4 0.897-0.581 1.9 0.066 2.85 0.107 6.34 1.2 12.4 3.36 18.7 5.06 4.38 1.3 8.28 3.74 12.3 5.87 2.93 1.65 5.9 3.47 7.98 6.16 1.24 1.8 1.51 4.26 3.32 5.65 0.381 0.272 1.01 0.501 1.39 0.33 0.599-0.78-0.0115-1.67-0.153-2.49-0.588-2.09-1.25-4.22-2.42-6.06-2.29-2.15-4.68-4.22-7.43-5.76-3.76-2.2-7.7-4.05-11.7-5.84-5.36-2.17-11.1-3.2-16.6-4.76-3.02-0.789-6.17-0.912-9.26-0.506-0.846 0.199-1.76-0.0729-2.22-0.845-2.41-3.88-5.2-7.54-8.45-10.8-4.58-4.95-9.36-9.74-13.5-15-0.461-0.711-0.823-1.48-1.2-2.24 4.4-1.05 8.92-0.489 13.4-0.604 8.37 0.0585 16.8-0.0149 25 2.1 5.74 1.47 7.38 2.74 12.5 5.72 3.28 1.84 6.43 3.95 9.89 5.45 0.771-0.188 1.12-1.09 0.705-1.76-0.959-1.78-2.39-3.26-3.87-4.61-1.26-0.864-2.89-0.914-4.16-1.78-2.8-1.61-5.58-3.24-8.53-4.55-3.4-1.57-6.33-2.6-9.23-3.26-4.29-0.975-8.51-1.14-14.1-1.04-7.45-0.0427-14.9 0.186-22.3 1.01-1.09 0.135-1.99 1.16-3.11 0.67-1.87-1.01-3.51-2.39-5.2-3.67-4.99-3.9-9.85-7.97-15.1-11.5-1.22-0.815-2.48-1.56-3.77-2.26-0.0918 0.0736-0.184 0.147-0.275 0.221z" fill="#a855f7"/><path d="m130 99.6c-0.299 9e-3 -0.566 0.0375-0.787 0.0865-1.98 0.437-5.41 3.52-9.42 8.48-0.28 0.346-1.07 1.17-1.75 1.83-0.684 0.662-1.46 1.42-1.73 1.68-1.03 1-4.09 4.63-4.18 4.96-0.223 0.355-0.449 0.707-0.691 1.05-0.634 0.928-1.59 2.23-2.8 3.7-0.622 0.759-2.02 2.79-3.11 4.52s-2.07 3.29-2.18 3.47c-0.115 0.18-0.598 0.223-1.07 0.0953-0.728-0.195-0.896-0.121-1.05 0.468-0.0504 0.188-0.108 0.31-0.186 0.4 1.09 4.57 5.07 7.79 9.64 7.8 1.9-5.6e-4 3.75-0.559 5.35-1.61-0.0714-0.0811-0.155-0.156-0.205-0.242-0.283-0.49-0.23-0.748 0.371-1.81 0.728-1.29 3.34-6.31 4.3-8.25v-1e-3c0.0333-0.0654 0.108-0.203 0.134-0.257 0.898-1.83 3.51-6.01 4.65-7.44 0.555-0.693 0.824-1.03 1.01-1.08 3.2e-4 -2e-3 7.7e-4 -3e-3 1e-3 -5e-3 0 0 3.81-3.35 4.53-3.94 0.0107-8e-3 0.0305-0.0148 0.0455-0.0222 0.0811-0.179 0.277-0.329 0.674-0.576 0.52-0.324 1.23-1.03 1.57-1.57 0.345-0.536 0.758-1.01 0.918-1.06 0.773-0.232 3.63-3.11 5.01-5.04 0.768-1.08 0.0388-2.71-1.73-3.88-1.27-0.836-4.19-1.59-6.32-1.75-0.355-0.0265-0.687-0.0368-0.987-0.0277z" fill="#b25897"/></g></g></svg>
