<?xml version="1.0" encoding="UTF-8" standalone="no"?>
<!-- Created with Inkscape (http://www.inkscape.org/) -->

<svg
   width="82.066689mm"
   height="106.85744mm"
   viewBox="0 0 82.066689 106.85744"
   version="1.1"
   id="svg1"
   xml:space="preserve"
   sodipodi:docname="monster.svg"
   inkscape:version="1.3.2 (091e20e, 2023-11-25)"
   xmlns:inkscape="http://www.inkscape.org/namespaces/inkscape"
   xmlns:sodipodi="http://sodipodi.sourceforge.net/DTD/sodipodi-0.dtd"
   xmlns="http://www.w3.org/2000/svg"
   xmlns:svg="http://www.w3.org/2000/svg"><sodipodi:namedview
     id="namedview1"
     pagecolor="#505050"
     bordercolor="#eeeeee"
     borderopacity="1"
     inkscape:showpageshadow="0"
     inkscape:pageopacity="0"
     inkscape:pagecheckerboard="0"
     inkscape:deskcolor="#505050"
     inkscape:document-units="mm"
     inkscape:zoom="4.6440252"
     inkscape:cx="155.25325"
     inkscape:cy="236.97115"
     inkscape:window-width="1304"
     inkscape:window-height="790"
     inkscape:window-x="1440"
     inkscape:window-y="25"
     inkscape:window-maximized="0"
     inkscape:current-layer="layer1" /><defs
     id="defs1" /><g
     inkscape:label="Layer 1"
     inkscape:groupmode="layer"
     id="layer1"
     transform="translate(-107.50085,-49.111732)"><path
       style="fill:#f368e9;fill-opacity:1"
       d="m 148.68971,154.0266 c -3.16956,-0.53378 -6.09438,-1.90136 -9.08572,-3.01304 -4.27024,-1.57731 -4.7439,-1.94558 -15.45909,-12.0196 -10.93354,-10.27929 -11.85496,-23.05688 -1.65966,-23.0147 1.83636,0.008 1.91614,0.27964 1.00754,3.43553 -1.71924,5.9715 5.98248,13.74533 6.05524,13.80333 0.14652,0.0975 1.60452,1.2366 3.24002,2.53132 4.64048,3.67357 12.97681,7.94644 18.42311,8.85237 14.61404,2.43089 24.39867,2.49561 38.35639,2.77975 l -0.0157,7.71446 c -12.51912,1.28322 -23.92089,1.20706 -37.57862,-0.59578 -0.39704,-0.0524 -1.87778,-0.22864 -3.28355,-0.47366 z m 2.95282,-2.32855 c 0,-0.11214 -0.18364,-0.35629 -0.40808,-0.54256 -0.57106,-0.47394 -1.14462,0.0751 -0.67261,0.64382 0.31627,0.38108 1.08069,0.30945 1.08069,-0.10126 z m -4.29228,-0.2855 c 0.22348,-1.17396 -2.9935,-2.86496 -3.83997,-2.01848 -0.70522,0.70522 0.13216,1.5689 2.31142,2.38404 0.67522,0.25256 1.44598,0.0682 1.52855,-0.36556 z m -5.54504,-1.63412 c -0.0465,-0.32593 -0.29291,-0.63232 -0.54757,-0.68086 -0.53074,-0.10115 -0.61951,0.48199 -0.14552,0.95597 0.49269,0.4927 0.78602,0.37627 0.69309,-0.27511 z m -2.92886,-1.41385 c -0.25213,-0.25213 -0.75763,0.15626 -0.56973,0.4603 0.11169,0.18071 0.25968,0.17614 0.4497,-0.0139 0.15578,-0.15578 0.20979,-0.35667 0.12003,-0.44643 z m -2.05048,-2.45906 c 0,-0.86699 -0.5455,-1.44192 -1.24102,-1.30798 -1.0685,0.20578 -0.3905,2.06933 0.75286,2.06933 0.36139,0 0.48816,-0.1977 0.48816,-0.76135 z m -5.02709,-1.60428 c 0,-0.31217 -0.51603,-0.64611 -0.70555,-0.45659 -0.18953,0.18953 0.14441,0.70556 0.45659,0.70556 0.13693,0 0.24896,-0.11204 0.24896,-0.24897 z m 9.45743,-19.16503 c -1.08948,-0.33321 -2.37357,-0.34162 -1.53901,-1.52514 5.4945,-7.79195 3.35714,-7.12564 5.93432,-10.35162 2.68532,-3.36136 4.70164,-10.44207 5.58429,-14.526378 2.96242,-9.793766 1.86631,-16.671194 0.2677,-25.884945 -1.08806,-5.323767 -5.27192,-16.634841 -21.15993,-16.06984 -4.7644,0.16943 -5.06174,0.270343 -10.98021,3.726518 -1.90436,1.112076 -2.10286,0.649147 -0.81532,-1.901448 1.04128,-2.062776 3.99032,-4.72803 3.99032,-3.606339 0,0.710074 1.43565,0.393999 1.53975,-0.338994 0.0608,-0.428047 -0.0507,-0.597677 -0.39687,-0.603727 -1.41899,-0.0248 3.74691,-2.620433 7.33921,-3.687624 2.66122,-0.790589 3.6797,-0.92653 2.12885,-0.284149 -2.22051,0.919765 -2.22207,2.538963 -0.002,2.496976 3.92853,-0.07431 6.31164,-2.634787 2.81257,-3.021911 -1.30322,-0.144185 -1.23832,-0.16499 1.13098,-0.362552 1.64312,-0.13701 3.10909,-0.104524 4.23333,0.09381 2.83146,0.499516 2.93061,0.573599 1.31794,0.984722 -6.02051,1.534821 -5.23454,4.275357 0.8631,3.009493 1.65638,-0.343864 3.11528,-1.165354 3.29585,-1.855863 0.72546,-1.457387 5.111,2.513905 5.90566,3.320697 0.70066,1.026509 10.65993,5.540511 8.94255,38.158155 -0.62042,11.783469 -7.55569,35.065299 -20.39308,32.230159 z M 121.21545,57.237711 c 0,-0.145521 -0.11906,-0.264583 -0.26458,-0.264583 -0.14552,0 -0.26459,0.119062 -0.26459,0.264583 0,0.145521 0.11907,0.264584 0.26459,0.264584 0.14552,0 0.26458,-0.119063 0.26458,-0.264584 z m 23.14089,-1.944236 c 0.62868,-0.4597 0.31171,-0.967321 -0.60078,-0.962129 -1.08538,0.0062 -1.55599,0.383231 -1.1256,0.901825 0.4243,0.511242 1.07844,0.534092 1.72638,0.0603 z m -10.70547,-1.372364 c 0,-0.06764 -0.23813,-0.122983 -0.52917,-0.122983 -0.29937,0 -0.52917,0.176389 -0.52917,0.406184 0,0.324196 0.10682,0.34902 0.52917,0.122983 0.29104,-0.155761 0.52917,-0.338544 0.52917,-0.406184 z m -5.15088,0.02281 c 0.70703,-0.295416 0.91754,-0.538231 0.91754,-1.058333 0,-0.998365 -1.53009,-0.955196 -2.68389,0.07572 -1.37039,1.224442 -0.27321,1.834795 1.76635,0.982611 z m 18.39402,-0.0135 c -0.0207,-0.392719 -0.61267,-0.320571 -0.75,0.09141 -0.0742,0.222547 0.0468,0.32173 0.32265,0.264583 0.24273,-0.05028 0.43504,-0.210477 0.42735,-0.355997 z m -6.78249,-3.203308 c 0.63821,-0.244905 0.49882,-0.633151 -0.22733,-0.633151 -0.66389,0 -1.05797,0.324664 -0.75807,0.624555 0.21133,0.211337 0.4516,0.213433 0.9854,0.0086 z"
       id="path16"
       sodipodi:nodetypes="ssscssssccssssssssssssssscssccssssssssssssssssssssssssssscsssssssssssssssssssssssssssssssss" /><path
       style="fill:#68e4a9;fill-opacity:1"
       d="m 126.63941,146.95801 c -2.25562,-1.52822 -6.0197,-3.73986 -9.39271,-5.51882 -1.38245,-0.72912 -3.0722,-1.64343 -3.755,-2.0318 l -1.24146,-0.70614 -0.39301,0.60938 c -0.21616,0.33515 -0.53982,0.93679 -0.71924,1.33697 -0.17943,0.40019 -0.42618,0.72761 -0.54834,0.72761 -0.32842,0 -0.28536,-0.15737 0.42863,-1.56636 l 0.65074,-1.28418 -1.57678,-0.68384 c -0.86724,-0.3761 -1.57679,-0.77825 -1.57679,-0.89366 0,-0.46509 2.72224,-3.53676 3.02982,-3.41873 0.18188,0.0698 1.53636,0.91431 3.00995,1.87669 2.70051,1.76368 9.3157,5.44091 9.78797,5.44091 0.14004,0 0.83304,0.51685 1.54,1.14855 0.70696,0.63171 2.00219,1.6735 2.87829,2.31511 2.03142,1.4877 1.98396,1.36371 1.05293,2.75062 -0.96694,1.44041 -0.89453,1.44275 -3.175,-0.10231 z m -4.96625,0.60754 c -0.19783,-0.19783 0.89059,-2.48617 1.18251,-2.48617 0.34379,0 0.24633,0.48269 -0.32268,1.59804 -0.5616,1.10083 -0.60368,1.14429 -0.85983,0.88813 z m 0.46833,-8.54926 c -0.43656,-0.25465 -1.75743,-1.00949 -2.93527,-1.67741 -1.17784,-0.66793 -3.28424,-1.95519 -4.6809,-2.86057 l -2.53939,-1.64615 1.48413,-2.80608 c 0.81627,-1.54334 1.51602,-2.84801 1.55499,-2.89926 0.039,-0.0512 0.14029,0.36547 0.22515,0.92604 0.61726,4.0775 1.07742,4.87293 4.98753,8.62127 1.62915,1.56175 2.90256,2.83181 2.8298,2.82235 -0.0728,-0.009 -0.48948,-0.22554 -0.92604,-0.48019 z m 11.31773,-2.70569 c -1.46415,-1.12531 -1.09669,-2.18457 0.39531,-1.13953 0.74949,0.52496 1.13708,1.24927 0.88596,1.6556 -0.13939,0.22554 -0.5112,0.0758 -1.28127,-0.51607 z m -25.56673,-0.59725 c 0.12089,-0.54239 0.0822,-0.71219 -0.1322,-0.5797 -1.43788,0.88866 3.44579,-5.67877 6.17987,-8.31052 l 1.23692,-1.19063 -1.0033,1.85208 c -1.54663,2.85509 -2.24046,3.91376 -3.67395,5.60583 -0.72761,0.85886 -1.65038,1.97296 -2.05062,2.47578 l -0.72769,0.91423 z m 23.21222,-1.32868 c -0.50599,-0.4473 -0.6619,-0.74097 -0.4651,-0.87605 0.16281,-0.11176 0.61478,-0.83514 1.00436,-1.6075 1.02385,-2.02981 2.67093,-4.68505 4.15478,-6.69786 1.56045,-2.1167 1.64862,-3.83216 0.16776,-3.2639 -0.56972,0.21862 -3.48486,4.78354 -5.23079,8.19106 l -1.49122,2.91041 -1.10519,-1.26778 -1.1052,-1.26778 0.90383,-1.41292 c 0.49711,-0.7771 1.28812,-2.29019 1.7578,-3.36242 0.46969,-1.07223 1.20698,-2.57648 1.63843,-3.34278 0.85331,-1.51556 0.85609,-2.82197 0.006,-2.65819 -0.43719,0.0842 -2.06822,2.68094 -4.18133,6.65703 l -1.10351,2.0764 -0.96493,-1.75547 -0.96493,-1.75547 0.54756,-1.07332 c 0.30116,-0.59032 1.00758,-1.82488 1.56981,-2.74346 1.29549,-2.11658 1.81239,-3.72128 1.34508,-4.17577 -0.43797,-0.42595 -1.76615,1.07245 -3.34951,3.77881 -1.3191,2.25468 -1.62002,1.72173 -0.74694,-1.32292 0.22951,-0.80036 0.49599,-1.83526 0.59217,-2.29976 0.20648,-0.99716 3.27951,-6.21595 3.50458,-5.95168 0.0851,0.0999 0.36414,0.75064 0.62012,1.44606 1.61804,4.39588 5.83183,6.91418 11.59408,6.929 3.52976,0.009 3.36233,-0.25496 2.84464,0.67013 -0.75856,1.35551 -1.03757,1.69225 -1.76628,2.65537 -0.9395,1.3513 -5.58024,7.591 -7.05056,9.47981 -0.60777,0.78076 -1.2983,1.71076 -1.53452,2.06668 l -0.42949,0.64712 z m 5.45657,-15.74807 c -3.84103,-0.57529 -8.20208,-5.15478 -8.20208,-8.61293 0,-1.63833 6.63186,-3.02696 9.16389,-1.91881 5.55995,2.43331 8.04058,6.25049 6.40077,9.84948 -0.41591,0.91284 -3.75633,1.22238 -7.36258,0.68226 z M 118.06889,80.158441 c -0.42151,-0.507894 -0.70031,-1.646413 -1.20934,-4.938577 -0.21456,-1.38768 -0.57241,-3.039759 -0.79523,-3.671286 -0.22282,-0.631527 -0.40512,-1.192793 -0.40512,-1.247257 0,-0.05447 0.70633,-0.09903 1.56962,-0.09903 1.4308,0 3.46416,-0.452663 9.54288,-2.124416 1.09141,-0.300156 2.54191,-0.654726 3.22334,-0.787934 0.68142,-0.133208 1.98679,-0.598387 2.90081,-1.03373 0.91401,-0.435344 1.68333,-0.767367 1.70958,-0.737831 0.44785,0.50387 3.08874,6.311785 3.42311,7.528182 0.25001,0.909505 0.55035,1.653646 0.66742,1.653646 0.43882,0 -0.85769,-3.779508 -2.30683,-6.724725 -1.67858,-3.411533 -1.50518,-3.313995 -3.96185,-2.228662 -0.60021,0.265168 -2.38615,0.787139 -3.96875,1.159934 -1.5826,0.372795 -4.47243,1.147736 -6.42183,1.72209 -5.9283,1.746652 -7.99795,1.40921 -6.97655,-1.137476 0.30665,-0.764566 0.75641,-2.100911 0.99948,-2.969656 0.53694,-1.919125 1.3889,-3.64985 1.70154,-3.456628 0.12628,0.07804 0.16736,0.379906 0.0913,0.670803 -0.25274,0.966468 1.16788,0.631671 3.43961,-0.810618 4.86665,-3.089751 12.77084,-4.47962 16.66345,-2.93009 l 0.73277,0.291696 -1.04545,1.525937 c -0.575,0.839265 -1.59402,2.166197 -2.26449,2.948738 -0.67047,0.782541 -1.16218,1.479654 -1.09269,1.54914 0.20574,0.205743 1.80377,-1.697421 4.26,-5.073434 0.47386,-0.651301 0.63494,-0.70738 1.54112,-0.536532 0.6782,0.127866 0.92422,0.278515 0.74596,0.456781 -0.39477,0.394765 1.80584,4.675133 2.40927,4.686253 2.46423,0.04541 -2.58365,11.914782 -5.06719,11.914782 -0.2378,0 -0.8818,0.305399 -1.43111,0.678664 -0.98107,0.666653 -5.11253,2.029809 -7.19388,2.373588 -0.58209,0.09614 -1.65365,0.352568 -2.38125,0.569833 -2.90825,0.868411 -8.61935,1.356578 -9.09969,0.777812 z m 10.00464,-15.814117 c 1.2499,-1.164461 0.48347,-2.70015 -1.35294,-2.710877 -2.05385,-0.012 -3.61569,2.892762 -1.86852,3.475149 0.90827,0.302759 2.47514,-0.06897 3.22146,-0.764272 z"
       id="path15"
       sodipodi:nodetypes="ssscsssscsssssssssssssssscscsscsssssscscssscscssssscccssssscccsssssssccssssccssssssssssssssssssssssscsscsssssssssssssssss" /></g></svg>
