<?xml version="1.0" encoding="UTF-8" standalone="no"?>
<!-- Created with Inkscape (http://www.inkscape.org/) -->

<svg
   width="89.925224mm"
   height="86.113556mm"
   viewBox="0 0 89.925224 86.113556"
   version="1.1"
   xml:space="preserve"
   xmlns="http://www.w3.org/2000/svg"
   xmlns:svg="http://www.w3.org/2000/svg"><g
     id="layer1"
     transform="translate(-21.063801,-16.903514)"><path
       id="path4"
       fill="#581C87"
       d="m 80.576477,22.165055 c -2.827063,-0.05553 -5.496984,0.421487 -7.79849,1.524455 -0.609735,0.292208 -1.18966,0.541358 -1.626258,0.709518 -1.67e-4,6.4e-5 -3.49e-4,4.52e-4 -5.16e-4,5.16e-4 -0.0074,0.0087 -0.0092,0.0115 -0.01654,0.02015 -0.680634,0.807288 -1.020093,1.237308 -1.020093,1.345654 0,0.03771 -0.04879,0.115882 -0.117305,0.210323 -0.01683,0.02322 -0.03426,0.04664 -0.05478,0.07286 -0.04108,0.05249 -0.102833,0.121438 -0.157613,0.185002 -0.08477,0.09838 -0.189031,0.210869 -0.302307,0.331763 -0.29239,0.312354 -0.640838,0.667682 -1.059884,1.071769 -0.001,9.76e-4 -0.0016,0.0016 -0.0026,0.0026 -0.0044,0.0042 -0.0095,0.0087 -0.01395,0.01292 -0.433932,0.418074 -0.903442,0.85193 -1.370459,1.273824 -0.07489,0.06762 -0.140756,0.126957 -0.214973,0.19327 -0.479652,0.428968 -0.935151,0.824191 -1.321367,1.138431 -3.2e-4,2.61e-4 -7.13e-4,7.74e-4 -0.001,0.001 -0.192934,0.81511 0.02869,0.973214 3.429764,5.020882 3.153656,3.753213 7.487352,9.690525 8.017082,10.983309 0.0995,0.242831 0.460469,0.737421 0.802018,1.099674 0.665919,0.706283 4.386522,6.259074 7.472929,11.152291 1.040854,1.65018 2.681843,4.009974 3.646289,5.244125 2.606661,3.335605 5.853319,7.948154 6.336048,9.001001 0.626962,1.367422 2.112756,3.452605 3.15743,4.43177 1.494034,1.40035 3.726948,-0.184783 6.008928,-4.265372 0.53805,-0.962123 1.08791,-1.816986 1.22163,-1.899626 0.13372,-0.08264 0.24288,-0.366623 0.24288,-0.630969 0,-0.611498 1.24237,-3.447108 1.76682,-4.032829 0.38979,-0.43533 1.78565,-5.405031 2.10478,-7.493599 0.0889,-0.582083 0.24674,-1.29646 0.35088,-1.5875 1.19534,-3.340765 0.37129,-12.218487 -1.4614,-15.742709 -0.49189,-0.945883 -1.08863,-2.132644 -1.32602,-2.637048 C 102.77554,29.356027 90.673147,22.363349 80.576491,22.16503 Z" /><path
       fill="#581C87"
       d="m 43.986977,37.706074 c -1.181522,-0.853085 -0.732159,-4.243812 0.706777,-5.333082 0.691474,-0.523443 5.059127,-2.651446 8.090618,-3.941901 5.399644,-2.298537 6.603684,-2.944742 8.263845,-4.435181 0.907093,-0.81436 2.335843,-1.950519 3.174999,-2.524798 0.839157,-0.574279 2.161749,-1.709645 2.939095,-2.523036 4.551413,-4.762454 8.975983,-0.367534 4.67206,4.640752 -1.423738,1.656742 -1.719791,2.031406 -1.719791,2.176449 0,0.44331 -5.15176,5.190974 -5.632802,5.190974 -0.131517,0 -0.74993,0.446484 -1.374249,0.992187 -2.614538,2.285306 -8.799883,4.828646 -11.743155,4.828646 -0.626371,0 -1.154654,0.150238 -1.278834,0.363686 -0.428639,0.736774 -5.243001,1.18304 -6.098563,0.565304 z"
       id="path32" /><path
       fill="#581C87"
       d="M 41.010414,102.53944 C 25.660191,99.218468 18.812957,88.002482 21.71639,70.935217 23.1281,62.636759 28.487308,52.929532 32.330463,51.709762 c 0.331769,-0.1053 1.021497,-0.46744 1.53273,-0.804756 2.938726,-1.938999 9.557745,-2.666353 13.715278,-1.50715 1.791229,0.49943 1.652539,0.803239 1.828009,-4.004374 l 0.150683,-4.128499 0.674428,-0.16927 c 0.370935,-0.0931 1.342349,-0.03131 2.158698,0.1373 0.816348,0.168614 1.744993,0.306571 2.063656,0.306571 0.724352,0 0.732714,0.354497 0.07964,3.376239 -0.274862,1.271767 -0.571495,2.979355 -0.659184,3.794641 l -0.159435,1.482338 2.31283,0.151593 c 11.925549,0.781654 19.210873,11.935408 16.369714,25.061857 -1.041311,4.810965 -6.233071,17.197917 -7.208186,17.197917 -0.176736,0 -0.754306,0.589819 -1.283488,1.31071 -5.081481,6.922361 -14.450466,10.451601 -22.895418,8.624561 z"
       id="path3" /><path
       fill="#D946EF"
       d="m 70.90833,21.180245 c -1.740808,-0.925259 -3.067364,-3.05071 -2.292681,-3.673405 1.696138,-1.363368 5.203097,0.237149 5.203097,2.374605 0,1.807486 -1.061837,2.281341 -2.910416,1.2988 z"
       id="path11" /><path
       fill="#D946EF"
       d="m 55.954556,29.892596 c -0.469747,-0.519065 -0.467113,-0.556929 0.09129,-1.312203 0.316244,-0.427743 0.574989,-1.020661 0.574989,-1.317595 0,-0.296934 0.09339,-0.539881 0.207537,-0.539881 0.114146,0 0.423076,-0.364876 0.686511,-0.810836 0.761197,-1.288604 1.56856,-1.518514 2.465069,-0.70197 0.408058,0.371663 1.098886,0.972647 1.535172,1.335521 l 0.793248,0.659771 -1.425663,1.366912 c -2.046801,1.962455 -3.89813,2.458437 -4.928148,1.320281 z"
       id="path10" /><path
       fill="#D946EF"
       d="m 51.130726,37.623153 c -0.975718,-0.05618 -1.400872,-0.193957 -1.428749,-0.463021 -0.02183,-0.210676 -0.05159,-0.512528 -0.06615,-0.670781 -0.09472,-1.030105 4.329167,-1.913532 4.973768,-0.993235 0.932471,1.331289 -0.636648,2.290673 -3.478873,2.127037 z"
       id="path9" /><path
       fill="#D946EF"
       d="m 65.064892,92.325624 c -0.0058,-0.582083 0.45435,-4.285518 0.650384,-6.46833 1.063868,-11.846033 -0.97235,-25.329359 -3.957218,-29.685889 -0.396482,-0.57868 -1.813093,-0.966156 -3.045796,-0.873487 -6.485267,0.487531 -7.851402,1.656483 -10.811881,13.287744 -2.3969,9.417048 -2.934961,10.620835 -5.998873,13.421077 -3.340964,3.053454 -9.982847,3.382558 -13.650606,0.676385 -4.161794,-3.070686 -4.278851,-13.179631 -2.019529,-22.065649 1.554343,-6.113307 3.894118,-8.767599 10.052205,-10.856738 3.400656,-0.895835 5.262122,-0.909493 7.375572,-0.907175 1.659753,0.0018 5.357738,-0.236987 5.357738,0.6667 0,1.710332 -0.05619,2.232959 2.114045,2.458881 0,0 1.197325,0.26882 1.727817,-0.0085 0.28324,-0.148059 0.521141,-0.64529 0.521141,-0.64529 l 0.335075,-1.132564 2.31283,0.151593 c 14.605379,0.9573 19.508527,13.243192 16.14056,26.692987 -1.38773,5.541826 -7.079664,17.680061 -7.103464,15.288242 z"
       id="path2" /><path
       fill="#E9D5FF"
       d="m 69.249527,74.982172 c -0.08772,-0.08772 -0.04804,-0.452662 0.08819,-0.810975 0.415362,-1.092485 0.310018,-9.216105 -0.133269,-10.27704 -0.399785,-0.956822 -0.168443,-1.45302 0.373175,-0.80041 0.740018,0.891667 1.066118,2.918564 1.066118,6.626532 0,2.065209 -0.13071,4.12988 -0.290466,4.588158 -0.269786,0.773909 -0.725444,1.052044 -1.103753,0.673735 z M 29.174776,74.017189 c -0.547703,-0.700021 -0.528147,-1.627613 0.09965,-4.726744 0.932771,-4.604606 1.684489,-6.752837 3.436124,-9.819623 1.695441,-2.968401 3.408357,-4.966654 4.257448,-4.966654 0.946537,0 0.944656,0.789876 -0.0053,2.226493 -3.377348,5.10755 -5.228791,9.688178 -6.008227,14.864859 -0.319636,2.12289 -0.591542,2.752399 -1.188851,2.752399 -0.182644,0 -0.448526,-0.148829 -0.590847,-0.33073 z"
       id="path1" /><path
       id="path5"
       fill="#A855F7"
       d="m 68.646456,27.416414 c -0.16058,0.157069 -0.32281,0.312189 -0.496094,0.476974 0.315362,0.236636 0.937234,0.702588 1.964221,1.471228 1.786878,1.337374 7.173889,5.644832 8.295618,6.633187 0.124088,0.109334 0.03759,1.609104 -0.19172,3.33313 -0.33887,2.547759 -0.548478,6.254769 -0.449068,7.938533 0.03063,0.518816 1.018432,0.07662 1.180807,-0.52865 0.08422,-0.313967 0.155346,-1.880714 0.158646,-3.481441 0.0075,-3.667351 0.241765,-5.688542 0.659392,-5.688542 0.87142,0 7.690549,8.03102 9.728088,11.457182 l 1.123446,1.889291 0.1757,4.108276 c 0.408855,9.560682 0.595315,11.527029 1.028877,10.841715 0.315871,-0.499205 0.317197,-3.77302 0.0026,-6.020821 -1.180202,-8.432141 0.320797,-7.631183 3.623552,1.933732 1.498808,4.340615 1.76244,9.307788 0.651639,12.278837 -0.13403,0.358494 -0.09352,0.369191 0.272335,0.07183 0.246589,-0.200425 0.506856,-0.966787 0.610816,-1.798857 0.353934,-2.832792 1.070072,-1.803267 1.853116,2.664437 0.228321,1.302696 0.473934,2.463558 0.545704,2.579687 0.703859,1.138858 0.261912,-2.484463 -1.063501,-8.722465 -1.102143,-5.187184 -1.11296,-5.168521 1.98335,-3.353283 2.77263,1.625483 3.95754,2.90527 4.57801,4.944917 0.1721,0.565749 0.68678,0.615312 0.68678,0.06615 0,-0.21828 -0.11906,-0.396875 -0.26458,-0.396875 -0.14552,0 -0.26459,-0.183132 -0.26459,-0.40721 0,-0.848096 -1.11478,-2.540744 -2.19004,-3.325378 -1.42856,-1.042435 -4.531418,-2.617412 -5.156799,-2.617412 -0.371506,0 -0.680963,-0.586192 -1.361674,-2.579687 -0.89176,-2.611561 -2.348058,-6.217538 -3.751709,-9.289872 -0.422988,-0.925843 -0.768945,-1.805702 -0.768945,-1.95492 0,-0.901529 8.620027,1.443142 12.303127,3.346566 2.02517,1.046606 5.35988,4.269966 5.58571,5.399154 0.15286,0.7643 1.02462,1.863575 1.27744,1.610754 0.14242,-0.142414 -0.99157,-3.411161 -1.18339,-3.411161 -0.0777,0 -0.98207,-0.822847 -2.0097,-1.828313 -2.59976,-2.543698 -4.52715,-3.471387 -11.051524,-5.319055 -1.571619,-0.445078 -2.509754,-0.558009 -3.783232,-0.455786 l -1.693436,0.135909 -1.571997,-2.337842 c -0.864652,-1.285921 -2.436442,-3.275779 -3.49281,-4.421435 -7.285395,-7.901183 -7.37691,-7.204728 0.945162,-7.204728 8.996596,0 11.903206,0.676967 17.844907,4.155302 4.46704,2.615072 4.23625,2.499122 4.41162,2.215368 0.20903,-0.338212 -1.78537,-2.596244 -2.17765,-2.465482 -0.17421,0.05807 -1.00279,-0.307157 -1.84123,-0.811837 -3.86959,-2.329236 -7.542262,-3.614592 -11.857675,-4.149618 -2.724224,-0.337749 -12.95045,0.02462 -13.400732,0.474907 -0.574902,0.574902 -1.014943,0.341111 -4.26589,-2.269629 -3.79879,-3.050699 -6.610232,-5.086511 -7.024894,-5.086511 -0.06787,0 -0.127595,-0.04121 -0.177767,-0.100253 z" /></g></svg>
