<?xml version="1.0" encoding="UTF-8" standalone="no"?>
<!-- Created with Inkscape (http://www.inkscape.org/) -->

<svg
   width="20.799999mm"
   height="20.799999mm"
   viewBox="0 0 20.799999 20.799999"
   version="1.1"
   id="svg1"
   xml:space="preserve"
   inkscape:version="1.4 (e7c3feb1, 2024-10-09)"
   sodipodi:docname="pumpkin-web.svg"
   xmlns:inkscape="http://www.inkscape.org/namespaces/inkscape"
   xmlns:sodipodi="http://sodipodi.sourceforge.net/DTD/sodipodi-0.dtd"
   xmlns:xlink="http://www.w3.org/1999/xlink"
   xmlns="http://www.w3.org/2000/svg"
   xmlns:svg="http://www.w3.org/2000/svg"><sodipodi:namedview
     id="namedview1"
     pagecolor="#ffffff"
     bordercolor="#eeeeee"
     borderopacity="1"
     inkscape:showpageshadow="0"
     inkscape:pageopacity="0"
     inkscape:pagecheckerboard="0"
     inkscape:deskcolor="#ffffff"
     inkscape:document-units="mm"
     inkscape:zoom="10.776287"
     inkscape:cx="68.019717"
     inkscape:cy="22.085529"
     inkscape:window-width="1384"
     inkscape:window-height="831"
     inkscape:window-x="45"
     inkscape:window-y="55"
     inkscape:window-maximized="0"
     inkscape:current-layer="g2"
     showguides="false"
     showgrid="false" /><defs
     id="defs1"><linearGradient
       id="linearGradient24"
       inkscape:collect="always"><stop
         style="stop-color:#ed7a84;stop-opacity:1;"
         offset="0"
         id="stop25" /><stop
         style="stop-color:#f0951a;stop-opacity:1;"
         offset="1"
         id="stop26" /></linearGradient><linearGradient
       id="linearGradient22"
       inkscape:collect="always"><stop
         style="stop-color:#eb6db8;stop-opacity:1;"
         offset="0"
         id="stop23" /><stop
         style="stop-color:#e68500;stop-opacity:1;"
         offset="1"
         id="stop24" /></linearGradient><linearGradient
       id="linearGradient21"
       inkscape:collect="always"><stop
         style="stop-color:#ec739e;stop-opacity:1;"
         offset="0"
         id="stop21" /><stop
         style="stop-color:#f0951a;stop-opacity:1;"
         offset="1"
         id="stop22" /></linearGradient><radialGradient
       inkscape:collect="always"
       xlink:href="#linearGradient21"
       id="radialGradient22"
       cx="90.738609"
       cy="103.04047"
       fx="90.738609"
       fy="103.04047"
       r="4.8756596"
       gradientTransform="matrix(2.2675252,2.626066,-0.98157489,0.84755891,-13.871542,-224.06147)"
       gradientUnits="userSpaceOnUse" /><radialGradient
       inkscape:collect="always"
       xlink:href="#linearGradient22"
       id="radialGradient24"
       cx="88.542442"
       cy="102.48543"
       fx="88.542442"
       fy="102.48543"
       r="5.3651597"
       gradientTransform="matrix(1.6424078,3.3213123,-0.99453707,0.49180422,45.045202,-242.65672)"
       gradientUnits="userSpaceOnUse" /><radialGradient
       inkscape:collect="always"
       xlink:href="#linearGradient24"
       id="radialGradient26"
       cx="97.944092"
       cy="99.392479"
       fx="97.944092"
       fy="99.392479"
       r="4.8447147"
       gradientTransform="matrix(1.2231326,0.79523945,-0.74295443,1.1427146,51.989567,-94.427123)"
       gradientUnits="userSpaceOnUse" /></defs><g
     inkscape:label="Layer 1"
     inkscape:groupmode="layer"
     id="g10"
     style="display:inline"
     transform="translate(-111.70815,-93.93092)"><g
       id="g2"
       style="display:inline"
       transform="translate(23.165705,-0.65807785)"><path
         id="path4"
         style="display:inline;fill:none;fill-opacity:1;stroke:#472065;stroke-width:1.8;stroke-linejoin:round;stroke-dasharray:none;stroke-opacity:1"
         d="m 103.06729,98.667162 c -1.10186,-0.0047 -2.1322,0.24924 -2.78174,0.610298 -1.832259,0.06954 -3.418644,1.18323 -3.677811,1.79885 -0.05071,0.12047 -0.06583,0.27301 -0.05684,0.44804 -0.225293,0.0725 -0.420305,0.16063 -0.576192,0.25528 0,0 -0.262299,0.12844 -0.545703,0.45217 -0.583597,-0.40521 -1.13743,-0.59964 -1.62264,-0.48318 -0.438048,0.10514 -0.895599,0.53503 -1.235067,1.20458 -0.158542,-0.11972 -0.302921,-0.21026 -0.429431,-0.26303 -1.881398,-0.78478 -3.621586,2.76021 -1.725993,7.63622 1.665219,4.28343 6.414923,4.48134 8.679574,3.94808 1.301003,0.25023 2.312803,-0.0648 2.609133,-0.73328 0.55073,0.0628 0.99255,-0.0216 1.27693,-0.16382 0.26049,-0.13025 0.53549,-0.46575 0.76326,-0.96221 0.52769,0.18659 1.06284,-0.0479 1.5012,-0.61082 1.54606,-0.55747 4.03761,-4.29622 2.63239,-9.76943 -0.64836,-2.525336 -2.84281,-3.359285 -4.81107,-3.367748 z"
         inkscape:label="outline-bot" /><path
         id="path6-4"
         style="display:inline;fill:url(#radialGradient24);stroke:none;stroke-width:0.3;stroke-linejoin:round;stroke-dasharray:none;stroke-opacity:1"
         d="m 90.415834,110.32618 c 2.246963,5.77984 10.115256,4.12296 9.907296,3.26511 -0.20797,-0.85785 -6.240721,-10.09151 -8.181361,-10.901 -1.881398,-0.78478 -3.621528,2.75988 -1.725935,7.63589 z"
         sodipodi:nodetypes="ssss" /><path
         id="path7-6"
         style="display:inline;fill:#e68500;fill-opacity:1;stroke:none;stroke-width:0.3;stroke-linecap:butt;stroke-linejoin:miter;stroke-dasharray:none;stroke-opacity:1"
         d="m 99.611597,100.25374 c 0.08726,0.83135 3.472173,10.23298 4.827063,11.46837 1.12823,1.02872 5.14096,-3.06012 3.43953,-9.68705 -1.29673,-5.050678 -8.776235,-3.337068 -8.266593,-1.78132 z"
         sodipodi:nodetypes="cssc" /><path
         id="path14"
         style="display:inline;fill:none;fill-opacity:1;stroke:#472065;stroke-width:1.2;stroke-linecap:round;stroke-linejoin:round;stroke-dasharray:none;stroke-opacity:1"
         d="m 103.86982,100.89183 a 16.976984,21.167503 0 0 1 -5.648226,4.43745 c 0.0084,0.0139 0.0158,0.0274 0.02429,0.0413 -0.0091,-0.0134 -0.01824,-0.0264 -0.02739,-0.0398 a 16.976984,21.167503 0 0 1 -6.032707,1.43971 c 0.226608,1.14703 0.743487,2.41944 1.685168,3.74292 3.330756,4.6812 8.016995,4.51431 7.921995,2.53887 -0.0552,-1.14723 -1.18861,-3.83247 -2.666501,-6.30194 1.430661,2.15082 3.095761,4.27924 3.998201,5.23637 1.90386,2.01928 4.50877,-2.44472 2.20762,-8.53695 -0.41595,-1.1012 -0.91619,-1.93321 -1.46245,-2.55798 z"
         inkscape:label="outline-mid" /><path
         style="display:inline;fill:url(#radialGradient26);fill-opacity:1;stroke:none;stroke-width:0.3;stroke-linecap:butt;stroke-linejoin:miter;stroke-dasharray:none;stroke-opacity:1"
         d="m 96.607952,101.07613 c 0.510909,-1.213596 6.177208,-4.369616 8.724378,2.37392 2.30115,6.09223 -0.30396,10.55623 -2.20782,8.53695 -1.9039,-2.01928 -7.215395,-9.25087 -6.516558,-10.91087 z"
         id="path8-0"
         sodipodi:nodetypes="ssss" /><path
         style="display:inline;fill:url(#radialGradient22);fill-opacity:1;stroke:none;stroke-width:0.3;stroke-linecap:butt;stroke-linejoin:miter;stroke-dasharray:none;stroke-opacity:1"
         d="m 93.806147,101.74861 c -1.456329,0.34954 -3.134953,4.26804 0.06468,8.76496 3.330756,4.6812 8.017043,4.51431 7.922043,2.53887 -0.1182,-2.45779 -5.184923,-11.97631 -7.986728,-11.30383 z"
         id="path9-3"
         sodipodi:nodetypes="sssss" /><path
         id="path13"
         style="display:inline;fill:none;fill-opacity:1;stroke:#472065;stroke-width:1.2;stroke-linecap:round;stroke-linejoin:round;stroke-dasharray:none;stroke-opacity:1"
         d="m 101.98208,103.49115 a 13.679438,14.138479 0 0 1 -5.777934,5.24774 c 2.810688,4.93077 5.773384,5.14047 6.777364,4.63848 1.02657,-0.51329 2.27982,-4.20468 -0.03,-8.43928 -0.30543,-0.55996 -0.63139,-1.03754 -0.96945,-1.44694 z"
         inkscape:label="outline-top" /><path
         style="display:inline;fill:#ffa129;fill-opacity:1;stroke:none;stroke-width:0.3;stroke-linecap:butt;stroke-linejoin:miter;stroke-dasharray:none;stroke-opacity:1"
         d="m 95.974711,101.77946 c 0,0 -2.826037,1.36118 0.0398,6.62234 2.865834,5.26116 5.940439,5.48887 6.967009,4.97559 1.02657,-0.51329 2.2798,-4.20456 -0.03,-8.43916 -2.30978,-4.23459 -5.779166,-3.88592 -6.976829,-3.15877 z"
         id="path10-2"
         sodipodi:nodetypes="csssc" /><path
         id="rect16-6-4-94"
         style="display:none;fill:#581c87;fill-opacity:1;stroke:#581c87;stroke-width:0.3;stroke-linejoin:round;stroke-dasharray:none;stroke-opacity:1"
         d="m 93.371661,94.588546 c 0.176682,0.763402 0.732424,1.327757 1.407603,1.429418 v 0.01766 h 11.200556 v 5.18e-4 c 0.27483,-3.3e-5 0.49762,0.222768 0.49759,0.497596 -2.5e-4,0.274628 -0.22296,0.497108 -0.49759,0.497075 H 91.777072 v 5.2e-4 c -1.074364,-1.57e-4 -1.945348,0.870826 -1.945191,1.945191 3.77e-4,0.692704 0.369159,1.332936 0.968181,1.680806 6.2e-4,4.6e-4 8.71e-4,0.001 0.0016,0.002 0.533027,0.31812 1.295588,0.64859 2.029855,0.47007 0.888911,-0.21618 1.680537,0.56197 1.773787,1.17438 0.186498,1.22484 3.561151,-0.5361 3.690074,-0.69847 0.196494,-0.24748 -0.288046,-0.62673 -0.405403,-1.12484 -0.281854,-1.190771 -1.535677,-1.676839 -2.661379,-1.413127 -1.08058,0.287686 -1.497347,0.406699 -2.470315,0.406699 h -0.981217 c -0.274625,3.3e-5 -0.497341,-0.222451 -0.497594,-0.497076 -3.3e-5,-0.274828 0.222766,-0.497628 0.497594,-0.497595 v -5.2e-4 h 14.202746 c 1.07396,-1.27e-4 1.94454,-0.870709 1.94467,-1.944671 1.5e-4,-1.074163 -0.87051,-1.945064 -1.94467,-1.945192 h -9.367036 z"
         inkscape:label="stem"
         sodipodi:nodetypes="ccccccccccccccssssccccccccc" /><path
         id="rect16-6-4-94-0"
         style="display:inline;fill:#581c87;fill-opacity:1;stroke:#581c87;stroke-width:0.3;stroke-linejoin:round;stroke-dasharray:none;stroke-opacity:1"
         inkscape:label="stem"
         d="m 107.03124,94.73886 c -0.35339,1.81e-4 -0.67397,0.207165 -0.78044,0.472425 -0.10647,0.26526 -0.38426,0.54718 -0.59054,0.547151 H 92.094166 v 5.16e-4 c -1.306386,-1.92e-4 -2.365419,1.058838 -2.36523,2.365231 4.61e-4,0.842304 0.328679,1.531629 0.952913,2.057237 0.672286,0.56607 1.524903,0.76131 2.14974,0.79737 1.31911,-0.0246 1.529922,0.44646 1.64331,1.19114 0.226775,1.48935 4.330295,-0.65212 4.487065,-0.84956 0.238929,-0.30093 -0.350291,-0.76216 -0.492993,-1.367875 -0.342723,-1.447895 -1.867167,-2.038902 -3.235978,-1.718242 -1.313947,0.34981 -1.291691,0.494544 -2.474785,0.494544 h -0.664042 c -0.333934,3.8e-5 -0.604306,-0.270158 -0.604614,-0.604098 -4e-5,-0.334183 0.270434,-0.605179 0.604614,-0.605131 v -0.001 h 13.566094 c 1.00497,-1.23e-4 1.86074,-0.627809 2.20245,-1.512053 v 0 c 0.0509,-0.114547 0.0685,-0.242077 0.0687,-0.367419 1.1e-4,-0.497214 -0.40299,-0.900314 -0.9002,-0.900203 z"
         sodipodi:nodetypes="czccccccscccscccccccccc" /><path
         id="path3"
         style="display:inline;fill:#ffd0c9;fill-opacity:1;stroke-width:0.118;-inkscape-stroke:none"
         d="m 95.992789,102.79455 c -0.06331,-0.005 -0.125971,-0.003 -0.187582,0.006 -0.571807,0.0858 -0.992197,0.79703 -1.064535,1.80092 0.04449,0.75689 0.269564,1.69659 0.800986,2.85875 6.7e-5,1.4e-4 -6.9e-5,3.6e-4 -10e-7,5.1e-4 0.32171,0.38745 0.691481,0.57399 1.038696,0.524 1.221617,-0.15373 0.447819,-1.38943 0.24857,-2.76994 -0.227383,-1.57544 0.117791,-2.28314 -0.836131,-2.41993 z"
         sodipodi:nodetypes="cccsccscc" /><path
         style="display:inline;fill:none;stroke:#a855f7;stroke-width:0.4;stroke-linecap:round;stroke-linejoin:miter;stroke-dasharray:none;stroke-opacity:1"
         d="m 97.364278,100.98027 c 0,0 -0.186631,-1.472035 -1.377644,-1.741905 -0.723866,-0.164021 -3.236839,0.36751 -3.579058,0.36751 -0.662689,0 -1.400329,-0.506686 -1.465362,-1.341459 -0.06503,-1.212632 0.723388,-1.672844 1.434988,-1.672844 0.7116,0 12.653238,0.202683 13.480988,0.01709 0.82775,-0.185593 0.99585,-0.763214 1.19624,-1.470649"
         id="path20"
         sodipodi:nodetypes="csscssc" /></g></g></svg>
